<svg xmlns="http://www.w3.org/2000/svg" height="131.7"  viewBox="0 0 547.1 131.7" width="547.1">
    <desc >
        <referenceFile >KY033_Sensor_breadboard.svg</referenceFile>
    </desc>
    <title >KY033_Sensor_breadboard</title>
    <path fill="#414141" d="M0,0V131.7H540V0H0ZM350.9,91.4a27.3,27.3,0,1,1,27.3-27.3A27.3,27.3,0,0,1,350.9,91.4Zm154.5-1.1a27.3,27.3,0,1,1,27.3-27.3A27.3,27.3,0,0,1,505.4,90.4Z" />
    <rect height="108.64" fill="none"  stroke-width="2" x="256" y="8.3" stroke-miterlimit="10" stroke="#fff" width="51.7"/>
    <rect height="29.3" fill="none"  stroke-width="2" x="65.8" y="87.7" stroke-miterlimit="10" stroke="#fff" width="51.7"/>
    <rect height="29.3" fill="none"  stroke-width="2" x="128" y="88.5" stroke-miterlimit="10" stroke="#fff" width="51.7"/>
    <rect height="131.67" ry="35" fill="#a3a2a2"  x="393.3" width="70" rx="35"/>
    <rect height="131.25" ry="35"  x="390.6" y="0.4" width="70" rx="35"/>
    <circle r="20.8" fill="#0b0b0b"  cx="428.3" cy="44"/>
    <circle r="20.8" fill="#285dab"  cx="428.3" cy="86.7"/>
    <path fill="#498bca" d="M447,86.7c0,8.2-7.2-11.3-18.7-11.3S410,95.8,410,87.7s6.8-19.6,18.3-19.6S447,78.5,447,86.7Z" />
    <circle r="20.8" fill="#171616"  cx="428.3" cy="40"/>
    <path fill="#8f96b5" d="M448.2,40.3c0,8.2-7.2-11.3-18.7-11.3s-18.3,20.5-18.3,12.3,6.8-19.6,18.3-19.6S448.2,32.2,448.2,40.3Z" />
    <rect height="19.82" fill="#999"  x="134" y="92.7" width="39"/>
    <rect height="19.82" fill="#999"  x="263.5" y="10.2" width="39"/>
    <rect height="19.82" fill="#999"  x="263" y="92.5" width="39"/>
    <rect height="19.82" fill="#999"  x="72.2" y="92.4" width="39"/>
    <path fill="#285dab" d="M198.3,11.7h55.4a47.9,47.9,0,0,1,47.9,47.9v0a47.9,47.9,0,0,1-47.9,47.9H198.3a0,0,0,0,1,0,0V11.7A0,0,0,0,1,198.3,11.7Z" />
    <circle r="39.2" fill="#fff"  cx="250" cy="59.6"/>
    <g transform="translate(3.1 133.2) rotate(-30)" >
        <g >
            <g >
                <g >
                    <g >
                        <rect height="6.67"  x="227.2" y="57.5" width="45.6"/>
                    </g>
                </g>
            </g>
        </g>
    </g>
    <rect height="63.33"  x="93.6" y="11.3" width="45.7"/>
    <path fill="#fff" d="M505.2,17.7a41.9,41.9,0,1,0,41.9,41.9A41.9,41.9,0,0,0,505.2,17.7Zm19.9,61.7a28.1,28.1,0,1,1,0-39.7A28.1,28.1,0,0,1,525.1,79.5Z" />
    <path fill="#fff" d="M351.8,22.2a41.9,41.9,0,1,0,41.9,41.9A41.9,41.9,0,0,0,351.8,22.2ZM371.7,84a28.1,28.1,0,1,1,0-39.7A28.1,28.1,0,0,1,371.7,84Z" />
    <path fill="#fff" d="M23.8,11.7c-10.7,0-19.4,8.1-19.4,18s8.7,18,19.4,18,19.4-8.1,19.4-18S34.5,11.7,23.8,11.7ZM33,38.3a13.7,13.7,0,0,1-18.4,0,11.5,11.5,0,0,1,0-17.1,13.7,13.7,0,0,1,18.4,0A11.5,11.5,0,0,1,33,38.3Z" />
    <path fill="#fff" d="M23.8,46.3c-10.7,0-19.4,8.1-19.4,18s8.7,18,19.4,18,19.4-8.1,19.4-18S34.5,46.3,23.8,46.3ZM33,72.9a13.7,13.7,0,0,1-18.4,0,11.5,11.5,0,0,1,0-17.1,13.7,13.7,0,0,1,18.4,0A11.5,11.5,0,0,1,33,72.9Z" />
    <path fill="#fff" d="M23.8,80.9c-10.7,0-19.4,8.1-19.4,18s8.7,18,19.4,18,19.4-8.1,19.4-18S34.5,80.9,23.8,80.9ZM33,107.5a13.7,13.7,0,0,1-18.4,0,11.5,11.5,0,0,1,0-17.1,13.7,13.7,0,0,1,18.4,0A11.5,11.5,0,0,1,33,107.5Z" />
    <rect height="8.62" ry="4.3" fill="#fff"  x="68.9" y="11.3" width="20.4" rx="4.3"/>
    <rect height="8.62" ry="4.3" fill="#fff"  x="68.3" y="27.5" width="20.4" rx="4.3"/>
    <rect height="8.62" ry="4.3" fill="#fff"  x="68.6" y="43.7" width="20.4" rx="4.3"/>
    <rect height="8.62" ry="4.3" fill="#fff"  x="68.3" y="60" width="20.4" rx="4.3"/>
    <rect height="8.62" ry="4.3" fill="#fff"  x="144.6" y="11.4" width="20.4" rx="4.3"/>
    <rect height="8.62" ry="4.3" fill="#fff"  x="144" y="27.6" width="20.4" rx="4.3"/>
    <rect height="8.62" ry="4.3" fill="#fff"  x="144.3" y="43.9" width="20.4" rx="4.3"/>
    <rect height="8.62" ry="4.3" fill="#fff"  x="144" y="60.1" width="20.4" rx="4.3"/>
    <path fill="#fff" d="M60,62.8H56.6L47,59a0.9,0.9,0,0,1,0-1.8l9.6-3.7H60a0.9,0.9,0,0,1,.7.3,0.9,0.9,0,0,1,0,1.3,0.9,0.9,0,0,1-.7.3H57l-7.2,2.8L56.9,61h3a0.9,0.9,0,0,1,.7.3,0.9,0.9,0,0,1,0,1.3A0.9,0.9,0,0,1,60,62.8Z" />
    <path fill="#fff" d="M54.6,70.8h2.8a0.9,0.9,0,0,1,.6.3,0.9,0.9,0,0,1,.3.7,0.9,0.9,0,0,1-.9.9H54.6v2.8a0.9,0.9,0,0,1-.3.7,0.9,0.9,0,0,1-1.3,0,0.9,0.9,0,0,1-.3-0.7V72.6H49.9a0.9,0.9,0,0,1-.7-0.3,0.9,0.9,0,0,1-.3-0.7,0.9,0.9,0,0,1,.3-0.7,0.9,0.9,0,0,1,.7-0.3h2.8V67.9a0.9,0.9,0,0,1,.3-0.6,0.9,0.9,0,0,1,.7-0.3,0.9,0.9,0,0,1,.9.9v2.8Z" />
    <path fill="#fff" d="M61.9,27.6v3.1a0.9,0.9,0,0,1-.9.9,0.9,0.9,0,0,1-.7-0.3,0.9,0.9,0,0,1-.3-0.6V27.8a0.9,0.9,0,0,0-.4-0.7l-3.3-2.6a1.7,1.7,0,0,0-1.1-.3H50.1a0.9,0.9,0,0,0-.7.3,0.9,0.9,0,0,0-.3.7v3.8a0.9,0.9,0,0,0,.9.9h2V27.8a0.9,0.9,0,0,1,.3-0.7,0.9,0.9,0,0,1,1.3,0,0.9,0.9,0,0,1,.3.7v3.8H50.1a2.8,2.8,0,0,1-2.8-2.8V25a2.7,2.7,0,0,1,.8-2,2.7,2.7,0,0,1,2-.8h5.1a3.7,3.7,0,0,1,2.3.7L61,25.7A2.5,2.5,0,0,1,61.9,27.6Z" />
    <path fill="#fff" d="M312.2,11.3h13.7v6.5a2.7,2.7,0,0,1-.8,1.9,2.7,2.7,0,0,1-2,.8h-1.1a2.7,2.7,0,0,1-2-.8,2.7,2.7,0,0,1-.8-2V16.7l-6.5,3.8-0.6.2a0.9,0.9,0,0,1-.6-0.3,0.9,0.9,0,0,1-.3-0.7,0.9,0.9,0,0,1,.5-0.8l7.5-4.3V13.2h-7a0.9,0.9,0,0,1-.7-0.3,0.9,0.9,0,0,1-.3-0.7A0.9,0.9,0,0,1,312.2,11.3Zm8.9,1.8v4.7a0.9,0.9,0,0,0,.9.9h1.1a0.9,0.9,0,0,0,.9-0.9V13.2h-2.9Z" />
    <path fill="#fff" d="M324.1,34.2h-3.5a2.6,2.6,0,0,1-2-.7,2.7,2.7,0,0,1-1.9.8h-3.6a1.8,1.8,0,0,1-1.3-.5,1.8,1.8,0,0,1-.5-1.3V25.8a0.9,0.9,0,1,1,1.8,0v6.5h3.6a0.9,0.9,0,0,0,.7-0.3,0.9,0.9,0,0,0,.3-0.7V27.7A0.9,0.9,0,0,1,318,27a0.9,0.9,0,0,1,1.6.7v3.7a0.9,0.9,0,0,0,.3.6,0.9,0.9,0,0,0,.7.3h3.6V25.7a0.9,0.9,0,1,1,1.8,0v6.6A1.8,1.8,0,0,1,324.1,34.2Z" />
    <path fill="#fff" d="M314.2,104.6h13.7v6.5a2.7,2.7,0,0,1-.8,2,2.7,2.7,0,0,1-2,.8h-1.1a2.7,2.7,0,0,1-2-.8,2.7,2.7,0,0,1-.8-2V110l-6.5,3.8-0.6.2a0.9,0.9,0,0,1-.6-0.3,0.9,0.9,0,0,1-.3-0.7,0.9,0.9,0,0,1,.5-0.8l7.5-4.3v-1.3h-7a0.9,0.9,0,0,1-.7-0.3,0.9,0.9,0,0,1-.3-0.7A0.9,0.9,0,0,1,314.2,104.6Zm8.9,1.8v4.7a0.9,0.9,0,0,0,.9.9h1.1a0.9,0.9,0,0,0,.9-0.9v-4.7h-2.9Z" />
    <path fill="#fff" d="M313.3,126.6v-8.4h6.4a1.8,1.8,0,0,1,1.3.5,1.8,1.8,0,0,1,.5,1.3v5.6h4.5V119a0.9,0.9,0,0,1,.3-0.7,0.9,0.9,0,0,1,1.3,0,0.9,0.9,0,0,1,.3.7v6.6a1.8,1.8,0,0,1-.5,1.3,1.8,1.8,0,0,1-1.3.5h-4.5a1.9,1.9,0,0,1-1.9-1.9V120h-4.5v6.5a0.9,0.9,0,0,1-.3.6,0.9,0.9,0,0,1-1.3,0A0.9,0.9,0,0,1,313.3,126.6Z" />
    <path fill="#fff" d="M185.2,98.7h13.7v6.5a2.7,2.7,0,0,1-.8,2,2.7,2.7,0,0,1-2,.8h-1.1a2.7,2.7,0,0,1-2-.8,2.7,2.7,0,0,1-.8-2V104l-6.5,3.8-0.6.2a0.9,0.9,0,0,1-.6-0.3,0.9,0.9,0,0,1-.3-0.7,0.9,0.9,0,0,1,.5-0.8l7.5-4.3v-1.3h-7a0.9,0.9,0,0,1-.7-0.3,0.9,0.9,0,0,1-.3-0.7A0.9,0.9,0,0,1,185.2,98.7Zm8.9,1.8v4.7a0.9,0.9,0,0,0,.9.9h1.1a0.9,0.9,0,0,0,.9-0.9v-4.7h-2.9Z" />
    <path fill="#fff" d="M186.2,113.1V116h10.9v-2.8a0.9,0.9,0,1,1,1.8,0v4.6H186.2v1.8H190a0.9,0.9,0,0,1,.6.3,0.9,0.9,0,0,1-.6,1.6h-4.8a0.9,0.9,0,0,1-.9-0.9v-7.4a0.9,0.9,0,0,1,.3-0.7,0.9,0.9,0,0,1,.7-0.3,0.9,0.9,0,0,1,.6.3A0.9,0.9,0,0,1,186.2,113.1Z" />
    <path fill="#fff" d="M185.9,17.5v7.5a0.9,0.9,0,0,1-.3.6,0.9,0.9,0,0,1-.6.3,0.9,0.9,0,0,1-.7-0.3,0.9,0.9,0,0,1-.3-0.6V22.2H173.2v2.8a0.9,0.9,0,0,1-1.8,0V17.5a0.9,0.9,0,1,1,1.8,0v2.8h10.9V17.5a0.9,0.9,0,0,1,.3-0.7,0.9,0.9,0,0,1,.6-0.3,0.9,0.9,0,0,1,.7.3A0.9,0.9,0,0,1,185.9,17.5Z" />
    <path fill="#fff" d="M173.2,35.2v3.3a0.9,0.9,0,0,1-.3.7,0.9,0.9,0,0,1-1.3,0,0.9,0.9,0,0,1-.3-0.7V35.1a2.7,2.7,0,0,1,.4-1.4,2.5,2.5,0,0,1,.9-1l4.1-2.1a4.2,4.2,0,0,1,1.8-.4,3.7,3.7,0,0,1,1.8.4l4.1,2.2a2.9,2.9,0,0,1,1,1,2.3,2.3,0,0,1,.4,1.3v3.6a0.9,0.9,0,0,1-.3.7,0.9,0.9,0,0,1-.6.3,0.9,0.9,0,0,1-.7-0.3,0.9,0.9,0,0,1-.3-0.7V35.1a0.8,0.8,0,0,0-.5-0.7l-3.8-2-1.1-.2a2.4,2.4,0,0,0-1.1.3l-3.8,2A0.9,0.9,0,0,0,173.2,35.2Z" />
    <path fill="#fff" d="M173.2,44.6v2.8h10.9V44.7a0.9,0.9,0,1,1,1.8,0v4.6H173.2v1.8H177a0.9,0.9,0,0,1,.6.3A0.9,0.9,0,0,1,177,53h-4.8a0.9,0.9,0,0,1-.9-0.9V44.6a0.9,0.9,0,0,1,.3-0.7,0.9,0.9,0,0,1,.7-0.3,0.9,0.9,0,0,1,.6.3A0.9,0.9,0,0,1,173.2,44.6Z" />
    <path fill="#fff" d="M460.2,12.6h13.7v6.5a2.7,2.7,0,0,1-.8,1.9,2.7,2.7,0,0,1-2,.8h-1.1a2.7,2.7,0,0,1-2-.8,2.7,2.7,0,0,1-.8-2V17.9l-6.5,3.8-0.6.2a0.8,0.8,0,0,1-.6-0.3,0.9,0.9,0,0,1-.3-0.7,0.9,0.9,0,0,1,.5-0.8l7.5-4.3V14.5h-7a0.9,0.9,0,0,1-.7-0.3,0.9,0.9,0,0,1-.3-0.7A0.9,0.9,0,0,1,460.2,12.6Zm8.9,1.8v4.7a0.9,0.9,0,0,0,.9.9h1.1a0.9,0.9,0,0,0,.9-0.9V14.4h-2.9Z" />
    <path fill="#fff" d="M473.4,104.9h2.5v9.3h-2.5a0.9,0.9,0,0,1-.7-0.3,0.9,0.9,0,0,1-.3-0.6,0.9,0.9,0,0,1,.3-0.7,0.9,0.9,0,0,1,.6-0.3h0.7v-1.9H462.2a0.9,0.9,0,0,1-.7-0.3,0.9,0.9,0,0,1-.3-0.6,0.9,0.9,0,0,1,.3-0.7,0.9,0.9,0,0,1,.7-0.3h11.8v-1.9h-0.6A0.9,0.9,0,1,1,473.4,104.9Z" />
    <path fill="#fff" d="M62.9,95.6v4.8a2.4,2.4,0,0,1-.7,1.7,2.4,2.4,0,0,1-1.8.8,0.9,0.9,0,0,1-.7-0.3,0.9,0.9,0,0,1-.3-0.6,0.8,0.8,0,0,1,.2-0.6l0.8-.3a0.7,0.7,0,0,0,.6-0.7V95.7c0-.2-0.1-0.3-0.2-0.3H60.5l-8.7,6.9a2.2,2.2,0,0,1-1.4.5,2,2,0,0,1-1.5-.6,1.8,1.8,0,0,1-.6-1.3V96a2.5,2.5,0,0,1,2.4-2.5,0.9,0.9,0,0,1,1,1,0.9,0.9,0,0,1-.3.6,0.9,0.9,0,0,1-.6.3l-0.5.2a0.7,0.7,0,0,0-.2.5v4.6a0.2,0.2,0,0,0,.2.3h0.3L59.4,94a2.2,2.2,0,0,1,1.4-.5,2.1,2.1,0,0,1,1.5.6A2,2,0,0,1,62.9,95.6Z" />
</svg>
