<svg xmlns="http://www.w3.org/2000/svg" height="44.2"  viewBox="0 0 183.8 44.2" width="183.8">
    <desc >
        <referenceFile >KY033_Sensor_breadboard.svg</referenceFile>
    </desc>
    <title >KY033_Sensor_breadboard</title>
    <path fill="#414141" d="M0,0V44.2H181.4V0H0ZM117.9,30.7a9.2,9.2,0,1,1,9.2-9.2A9.2,9.2,0,0,1,117.9,30.7Zm51.9-.4a9.2,9.2,0,1,1,9.2-9.2A9.2,9.2,0,0,1,169.8,30.4Z" />
    <rect height="36.49" fill="none"  stroke-width="2" x="86" y="2.8" stroke-miterlimit="10" stroke="#fff" width="17.4"/>
    <rect height="9.84" fill="none"  stroke-width="2" x="22.1" y="29.5" stroke-miterlimit="10" stroke="#fff" width="17.4"/>
    <rect height="9.84" fill="none"  stroke-width="2" x="43" y="29.7" stroke-miterlimit="10" stroke="#fff" width="17.4"/>
    <rect height="44.23" ry="11.8" fill="#a3a2a2"  x="132.1" width="23.5" rx="11.8"/>
    <rect height="44.09" ry="11.8"  x="131.2" y="0.1" width="23.5" rx="11.8"/>
    <circle r="7" fill="#0b0b0b"  cx="143.9" cy="14.8"/>
    <circle r="7" fill="#285dab"  cx="143.9" cy="29.1"/>
    <path fill="#498bca" d="M150.2,29.1c0,2.7-2.4-3.8-6.3-3.8s-6.2,6.9-6.2,4.1,2.3-6.6,6.2-6.6A6.4,6.4,0,0,1,150.2,29.1Z" />
    <circle r="7" fill="#171616"  cx="143.9" cy="13.4"/>
    <path fill="#8f96b5" d="M150.5,13.5c0,2.7-2.4-3.8-6.3-3.8s-6.2,6.9-6.2,4.1,2.3-6.6,6.2-6.6A6.4,6.4,0,0,1,150.5,13.5Z" />
    <rect height="6.66" fill="#999"  x="45" y="31.1" width="13.1"/>
    <rect height="6.66" fill="#999"  x="88.5" y="3.4" width="13.1"/>
    <rect height="6.66" fill="#999"  x="88.4" y="31.1" width="13.1"/>
    <rect height="6.66" fill="#999"  x="24.2" y="31" width="13.1"/>
    <path fill="#285dab" d="M66.6,3.9H85.2A16.1,16.1,0,0,1,101.3,20v0A16.1,16.1,0,0,1,85.2,36.1H66.6a0,0,0,0,1,0,0V3.9A0,0,0,0,1,66.6,3.9Z" />
    <circle r="13.2" fill="#fff"  cx="84" cy="20"/>
    <g transform="translate(1 44.7) rotate(-30)" >
        <g >
            <g >
                <g >
                    <rect height="2.24"  x="76.3" y="19.3" width="15.3"/>
                </g>
            </g>
        </g>
    </g>
    <rect height="21.27"  x="31.5" y="3.8" width="15.4"/>
    <path fill="#fff" d="M169.7,5.9A14.1,14.1,0,1,0,183.8,20,14.1,14.1,0,0,0,169.7,5.9Zm6.7,20.7a9.4,9.4,0,1,1,0-13.3A9.4,9.4,0,0,1,176.4,26.7Z" />
    <path fill="#fff" d="M118.2,7.5a14.1,14.1,0,1,0,14.1,14.1A14.1,14.1,0,0,0,118.2,7.5Zm6.7,20.7a9.4,9.4,0,1,1,0-13.3A9.4,9.4,0,0,1,124.8,28.2Z" />
    <path fill="#fff" d="M8,3.9A6.3,6.3,0,0,0,1.5,10,6.3,6.3,0,0,0,8,16,6.3,6.3,0,0,0,14.5,10,6.3,6.3,0,0,0,8,3.9Zm3.1,8.9a4.6,4.6,0,0,1-6.2,0,3.9,3.9,0,0,1,0-5.7,4.6,4.6,0,0,1,6.2,0A3.9,3.9,0,0,1,11.1,12.8Z"  id="connector0pin" gorn="0.23"/>
    <path fill="#fff" d="M8,15.5a6.3,6.3,0,0,0-6.5,6.1A6.3,6.3,0,0,0,8,27.7a6.3,6.3,0,0,0,6.5-6.1A6.3,6.3,0,0,0,8,15.5Zm3.1,8.9a4.6,4.6,0,0,1-6.2,0,3.9,3.9,0,0,1,0-5.7,4.6,4.6,0,0,1,6.2,0A3.9,3.9,0,0,1,11.1,24.5Z"  id="connector1pin" gorn="0.24"/>
    <path fill="#fff" d="M8,27.2a6.3,6.3,0,0,0-6.5,6.1A6.3,6.3,0,0,0,8,39.3a6.3,6.3,0,0,0,6.5-6.1A6.3,6.3,0,0,0,8,27.2Zm3.1,8.9a4.6,4.6,0,0,1-6.2,0,3.9,3.9,0,0,1,0-5.7,4.6,4.6,0,0,1,6.2,0A3.9,3.9,0,0,1,11.1,36.1Z"  id="connector2pin" gorn="0.25"/>
    <rect height="2.9" ry="1.4" fill="#fff"  x="23.2" y="3.8" width="6.9" rx="1.4"/>
    <rect height="2.9" ry="1.4" fill="#fff"  x="23" y="9.2" width="6.9" rx="1.4"/>
    <rect height="2.9" ry="1.4" fill="#fff"  x="23.1" y="14.7" width="6.9" rx="1.4"/>
    <rect height="2.9" ry="1.4" fill="#fff"  x="23" y="20.1" width="6.9" rx="1.4"/>
    <rect height="2.9" ry="1.4" fill="#fff"  x="48.6" y="3.8" width="6.9" rx="1.4"/>
    <rect height="2.9" ry="1.4" fill="#fff"  x="48.4" y="9.3" width="6.9" rx="1.4"/>
    <rect height="2.9" ry="1.4" fill="#fff"  x="48.5" y="14.7" width="6.9" rx="1.4"/>
    <rect height="2.9" ry="1.4" fill="#fff"  x="48.4" y="20.2" width="6.9" rx="1.4"/>
    <path fill="#fff" d="M20.1,21.1H19l-3.2-1.3a0.3,0.3,0,0,1,0-.6L19,18h1.4v0.4H19.1l-2.4.9,2.4,0.9h1.2V21H20.1Z" />
    <path fill="#fff" d="M18.3,23.8h1.2v0.4H18.3v1.2H17.8V24.4H16.5V23.9h1.2V22.6h0.4v1.2Z" />
    <path fill="#fff" d="M20.8,9.3v1.2H20.3V9.1l-1.1-.9H16.6V9.9h0.9V9.1H18v1.5H16.8a0.9,0.9,0,0,1-.9-0.9V8.4a0.9,0.9,0,0,1,.3-0.7,0.9,0.9,0,0,1,.7-0.3h1.7l0.8,0.2,1.2,0.9,0.2,0.3A0.8,0.8,0,0,1,20.8,9.3Z" />
    <path fill="#fff" d="M104.9,3.8h4.6V6a0.9,0.9,0,0,1-.3.7,0.9,0.9,0,0,1-.7.3h-0.4a0.9,0.9,0,0,1-.7-0.3,0.9,0.9,0,0,1-.3-0.7V5.6l-2.2,1.3h-0.4V6.6a0.3,0.3,0,0,1,.2-0.3l2.5-1.5V4.4h-2.6V3.9h0.2Zm3,0.6V6.2h0.8V4.4h-1Z" />
    <path fill="#fff" d="M108.9,11.5h-1.2a0.9,0.9,0,0,1-.7-0.3l-0.6.3h-1.2l-0.4-.2a0.6,0.6,0,0,1-.2-0.4V8.4h0.4v2.4h1.4V9.1h0.4v1.7h1.4V8.4h0.4v2.4a0.6,0.6,0,0,1-.2.4Z" />
    <path fill="#fff" d="M105.6,35.1h4.6v2.2a0.9,0.9,0,0,1-.3.7,0.9,0.9,0,0,1-.7.3h-0.4a0.9,0.9,0,0,1-.7-0.3,0.9,0.9,0,0,1-.3-0.7V36.9l-2.2,1.3h-0.4V37.9a0.3,0.3,0,0,1,.2-0.3l2.5-1.5V35.8h-2.6V35.2h0.2Zm3,0.6v1.8h0.8V35.8h-1Z" />
    <path fill="#fff" d="M105.3,42.5V39.7h2.1l0.4,0.2a0.6,0.6,0,0,1,.2.4v1.9h1.5V39.8h0.4v2.4a0.6,0.6,0,0,1-.2.4l-0.4.2H108l-0.4-.2a0.6,0.6,0,0,1-.2-0.4V40.3h-1.5v2.4h-0.4V42.5Z" />
    <path fill="#fff" d="M62.2,33.2h4.6v2.2a0.9,0.9,0,0,1-.3.7,0.9,0.9,0,0,1-.7.3H65.5a0.9,0.9,0,0,1-.7-0.3,0.9,0.9,0,0,1-.3-0.7V35l-2.2,1.3H62V36a0.3,0.3,0,0,1,.2-0.3l2.5-1.5V33.8H62V33.2h0.2Zm3,0.6v1.8h0.8V33.8h-1Z" />
    <path fill="#fff" d="M62.5,38v1h3.7V37.8h0.4v1.8H62.5v0.6h1.5v0.4H62V37.8h0.4V38Z" />
    <path fill="#fff" d="M62.5,5.9V8.6H61.9V7.4H58.2V8.6H57.6V5.7h0.4V6.8h3.7V5.7h0.4V5.9Z" />
    <path fill="#fff" d="M58.2,11.8v1.3H57.6V11.8a0.9,0.9,0,0,1,.1-0.5L58,11l1.4-.7h1.2L62,11l0.3,0.3a0.8,0.8,0,0,1,.1.4v1.4H61.9V11.8l-0.2-.2-1.3-.7H59.6l-1.3.7A0.3,0.3,0,0,0,58.2,11.8Z" />
    <path fill="#fff" d="M58.2,15v1h3.7V14.8h0.4v1.8H58.2v0.6h1.5v0.4h-2V14.8h0.4V15Z" />
    <path fill="#fff" d="M154.6,4.2h4.6V6.4a0.9,0.9,0,0,1-.3.7,0.9,0.9,0,0,1-.7.3h-0.4a0.9,0.9,0,0,1-.7-0.3,0.9,0.9,0,0,1-.3-0.7V6l-2.2,1.3h-0.4V7a0.3,0.3,0,0,1,.2-0.3L157,5.3V4.9h-2.6V4.3h0.2Zm3,0.6V6.6h0.8V4.9h-1Z" />
    <path fill="#fff" d="M159,35.2h0.8v3.1h-1.1V37.8h0.4V37.1h-4.2V36.6h4.2V35.8h-0.4V35.3H159Z" />
    <path fill="#fff" d="M21.1,32.1v1.6a0.9,0.9,0,0,1-.9.8H20.1V34.3A0.3,0.3,0,0,1,20,34h0.3a0.2,0.2,0,0,0,.2-0.2V32.2H20.3l-2.9,2.3-0.5.2-0.5-.2a0.6,0.6,0,0,1-.2-0.4V32.2a0.8,0.8,0,0,1,.3-0.6l0.6-.2a0.3,0.3,0,0,1,.3.3V32H16.9v1.7H17L20,31.6l0.5-.2,0.5,0.2A0.7,0.7,0,0,1,21.1,32.1Z" />
</svg>
