<?xml version='1.0' encoding='utf-8'?>
<!DOCTYPE svg>
<!-- Generator: Adobe Illustrator 15.1.0, SVG Export Plug-In . SVG Version: 6.00 Build 0)  -->
<svg xmlns="http://www.w3.org/2000/svg" gorn="0" xmlns:xml="http://www.w3.org/XML/1998/namespace" version="1.1" enable-background="new 0 0 56.69 175.75" width="0.787361in" x="0px" id="Layer_2" y="0px" xml:space="preserve" height="2.44097in"  viewBox="0 0 56.69 175.75">
    <desc >
        <referenceFile >water-depth-sensor-BREADBOARD_v6.svg</referenceFile>
    </desc>
    <metadata >
        <sfw >
            <slices />
            <sliceSourceBounds bottomLeftOrigin="true" width="56.69" x="0" y="0" height="175.75" />
        </sfw>
    </metadata>
    <path fill="#FA1A1B" d="M56.69,15.537V0H0v15.537l5.941,5.842c2.813,2.796,2.417,6.277,2.417,6.277v9.757c0,0,0.364,4.63-1.604,6.587L0,50.898V175.75h56.69V50.898L49.938,44c-1.969-1.958-1.604-6.587-1.604-6.587v-9.757c0,0-0.396-3.48,2.417-6.277L56.69,15.537z M51.926,54.334c0.57,0,1.033,0.463,1.033,1.033S52.496,56.4,51.926,56.4s-1.033-0.463-1.033-1.033S51.355,54.334,51.926,54.334z M27.28,3.541c0.736,0,1.333,0.598,1.333,1.334s-0.597,1.334-1.333,1.334s-1.333-0.598-1.333-1.334S26.544,3.541,27.28,3.541z M9.818,56.4c-0.571,0-1.034-0.463-1.034-1.033s0.463-1.033,1.034-1.033c0.57,0,1.033,0.463,1.033,1.033S10.389,56.4,9.818,56.4z M7.416,14.167c-2.946,0-5.334-2.388-5.334-5.334S4.47,3.5,7.416,3.5s5.334,2.388,5.334,5.334S10.362,14.167,7.416,14.167z M12.225,43.354c-0.518,0-0.938-0.42-0.938-0.938s0.42-0.938,0.938-0.938s0.938,0.42,0.938,0.938S12.743,43.354,12.225,43.354z M18.077,25.688c-0.518,0-0.938-0.42-0.938-0.938s0.42-0.938,0.938-0.938s0.938,0.42,0.938,0.938S18.594,25.688,18.077,25.688z M18.747,4.875c0-0.736,0.597-1.334,1.333-1.334s1.333,0.598,1.333,1.334s-0.597,1.334-1.333,1.334S18.747,5.611,18.747,4.875z M20.417,56.4c-0.57,0-1.033-0.463-1.033-1.033s0.463-1.033,1.033-1.033s1.033,0.463,1.033,1.033S20.988,56.4,20.417,56.4z M26.485,43.625c-0.518,0-0.938-0.42-0.938-0.938s0.42-0.938,0.938-0.938s0.938,0.42,0.938,0.938S27.003,43.625,26.485,43.625z M28.345,31.667c-0.518,0-0.938-0.42-0.938-0.938s0.42-0.938,0.938-0.938s0.938,0.42,0.938,0.938S28.863,31.667,28.345,31.667z M30.887,56.4c-0.57,0-1.033-0.463-1.033-1.033s0.463-1.033,1.033-1.033s1.033,0.463,1.033,1.033S31.457,56.4,30.887,56.4z M34.48,6.209c-0.736,0-1.334-0.598-1.334-1.334s0.598-1.334,1.334-1.334s1.334,0.598,1.334,1.334S35.217,6.209,34.48,6.209z M41.434,56.4c-0.57,0-1.033-0.463-1.033-1.033s0.463-1.033,1.033-1.033s1.033,0.463,1.033,1.033S42.004,56.4,41.434,56.4z M42.999,8.833c0-2.946,2.388-5.334,5.334-5.334s5.334,2.388,5.334,5.334s-2.388,5.334-5.334,5.334S42.999,11.779,42.999,8.833z" />
    <g >
        <rect fill="#CDC2B2" width="2.327" x="39.166" y="19.023" height="4.253" />
        <polyline stroke-miterlimit="10" opacity="0.52" fill="none" enable-background="new    " stroke="#A2A2A2" points="40.913,19.907 40.913,20.235 40.647,21.406 "  stroke-width="0.5"/>
        <polyline stroke-miterlimit="10" fill="none" stroke="#FFFFFF" points="41.229,20.324 40.619,20.324 40.33,20.002 "  stroke-width="0.5"/>
        <polyline stroke-miterlimit="10" fill="none" stroke="#FFFFFF" points="41.229,21.495 40.277,21.495 40.057,21.149 39.652,20.516 "  stroke-width="0.5"/>
        <line stroke-miterlimit="10" x1="39.816" x2="40.057" fill="none" stroke="#FFFFFF"  y1="21.993" stroke-width="0.5" y2="21.149"/>
        <circle cy="21.149" opacity="0.69" r="0.256" fill="#696153" enable-background="new    "  cx="40.331"/>
        <rect fill="#E1E1E1" width="2.327" x="39.166" y="22.908" height="0.368" />
        <rect fill="#E1E1E1" width="2.326" x="39.166" y="19.023" height="0.369" />
        <polyline fill="#696153" points="40.78,23.276 40.057,23.276 40.42,22.971 " />
        <polyline fill="#696153" points="40.057,19.023 40.78,19.023 40.419,19.328 " />
    </g>
    <g >
        <rect fill="#020202" width="2.45" x="39.193" y="33.145" height="4.347" />
        <rect fill="#C0BFBE" width="2.45" x="39.193" y="33.147" height="0.691" />
        <rect fill="#C0BFBE" width="2.45" x="39.193" y="36.797" height="0.695" />
    </g>
    <g >
        <rect fill="#020202" width="2.45" x="31.462" y="32.628" height="4.347" />
        <rect fill="#C0BFBE" width="2.45" x="31.462" y="32.63" height="0.691" />
        <rect fill="#C0BFBE" width="2.45" x="31.462" y="36.28" height="0.695" />
    </g>
    <g >
        <rect fill="#020202" width="2.45" x="10.902" y="32.566" height="4.347" />
        <rect fill="#C0BFBE" width="2.45" x="10.902" y="32.568" height="0.691" />
        <rect fill="#C0BFBE" width="2.45" x="10.902" y="36.218" height="0.695" />
    </g>
    <g >
        <rect fill="#30302F" width="6.878" x="18.844" y="33.285" height="3.034" />
        <polyline fill="#1E1F1E" points="18.844,36.319 18.45,36.47 18.45,33.009 18.844,33.285 " />
        <polygon fill="#1E1F1E" points="26.118,36.47 26.118,33.009 25.722,33.285 25.722,36.319 " />
        <polygon fill="#262626" points="26.118,33.009 25.722,33.285 18.844,33.285 18.45,33.009 26.02,33.009 " />
        <polygon points="26.118,36.47 25.722,36.319 18.844,36.319 18.45,36.47 26.02,36.47 " />
        <rect fill="#989898" width="1.323" x="21.688" y="31.558" height="1.451" />
        <rect fill="#989898" width="1.192" x="19.16" y="36.47" height="1.258" />
        <rect fill="#989898" width="1.15" x="24.397" y="36.47" height="1.258" />
        <rect fill="#6D6E6E" width="1.323" x="21.688" y="32.187" height="0.441" />
        <rect fill="#6D6E6E" width="1.192" x="19.16" y="36.806" height="0.41" />
        <rect fill="#6D6E6E" width="1.15" x="24.397" y="36.806" height="0.41" />
        <!-- Author: Richard Bruneau -->
    </g>
    <g >
        <path stroke-miterlimit="10" fill="#DDDDDD" d="M4.5,54.771c-0.478,0-0.865,0.387-0.865,0.865V173.39c0,0.479,0.387,0.865,0.865,0.865c0.477,0,0.864-0.387,0.864-0.865V55.636C5.364,55.158,4.977,54.771,4.5,54.771z" stroke="#969696"  stroke-width="0.1"/>
        <path stroke-miterlimit="10" fill="#DDDDDD" d="M15,54.771c-0.478,0-0.864,0.387-0.864,0.865V173.39c0,0.479,0.387,0.865,0.864,0.865s0.864-0.387,0.864-0.865V55.636C15.864,55.158,15.478,54.771,15,54.771z" stroke="#969696"  stroke-width="0.1"/>
        <path stroke-miterlimit="10" fill="#DDDDDD" d="M25.562,54.771c-0.478,0-0.864,0.387-0.864,0.865V173.39c0,0.479,0.387,0.865,0.864,0.865s0.864-0.387,0.864-0.865V55.636C26.426,55.158,26.04,54.771,25.562,54.771z" stroke="#969696"  stroke-width="0.1"/>
        <path stroke-miterlimit="10" fill="#DDDDDD" d="M36.052,54.771c-0.478,0-0.864,0.387-0.864,0.865V173.39c0,0.479,0.387,0.865,0.864,0.865s0.864-0.387,0.864-0.865V55.636C36.916,55.158,36.529,54.771,36.052,54.771z" stroke="#969696"  stroke-width="0.1"/>
        <path stroke-miterlimit="10" fill="#DDDDDD" d="M46.625,54.771c-0.478,0-0.864,0.387-0.864,0.865V173.39c0,0.479,0.387,0.865,0.864,0.865s0.864-0.387,0.864-0.865V55.636C47.489,55.158,47.103,54.771,46.625,54.771z" stroke="#969696"  stroke-width="0.1"/>
        <path stroke-miterlimit="10" fill="#DDDDDD" d="M9.818,53.412c-1.084,0-1.963,0.879-1.963,1.963c0,0.772,0.45,1.434,1.099,1.754v116.26c0,0.479,0.387,0.865,0.864,0.865s0.864-0.387,0.864-0.865V57.129c0.648-0.321,1.099-0.982,1.099-1.754C11.781,54.291,10.902,53.412,9.818,53.412z M9.818,56.313c-0.518,0-0.938-0.42-0.938-0.938s0.42-0.938,0.938-0.938s0.938,0.42,0.938,0.938S10.336,56.313,9.818,56.313z" stroke="#969696"  stroke-width="0.1"/>
        <path stroke-miterlimit="10" fill="#DDDDDD" d="M20.312,53.412c-1.084,0-1.963,0.879-1.963,1.963c0,0.772,0.45,1.434,1.099,1.754v116.26c0,0.479,0.387,0.865,0.864,0.865s0.864-0.387,0.864-0.865V57.129c0.648-0.321,1.099-0.982,1.099-1.754C22.274,54.291,21.396,53.412,20.312,53.412z M20.441,56.313c-0.518,0-0.938-0.42-0.938-0.938s0.42-0.938,0.938-0.938s0.938,0.42,0.938,0.938S20.958,56.313,20.441,56.313z" stroke="#969696"  stroke-width="0.1"/>
        <path stroke-miterlimit="10" fill="#DDDDDD" d="M30.808,53.412c-1.085,0-1.964,0.879-1.964,1.963c0,0.772,0.45,1.434,1.1,1.754v116.26c0,0.479,0.387,0.865,0.864,0.865s0.864-0.387,0.864-0.865V57.129c0.648-0.321,1.099-0.982,1.099-1.754C32.771,54.291,31.892,53.412,30.808,53.412z M30.881,56.313c-0.518,0-0.938-0.42-0.938-0.938s0.42-0.938,0.938-0.938s0.938,0.42,0.938,0.938S31.398,56.313,30.881,56.313z" stroke="#969696"  stroke-width="0.1"/>
        <path stroke-miterlimit="10" fill="#DDDDDD" d="M41.37,53.412c-1.085,0-1.964,0.879-1.964,1.963c0,0.772,0.45,1.434,1.1,1.754v116.261c0,0.479,0.387,0.865,0.864,0.865s0.864-0.387,0.864-0.865V57.129c0.648-0.321,1.099-0.982,1.099-1.754C43.333,54.291,42.454,53.412,41.37,53.412z M41.443,56.313c-0.518,0-0.938-0.42-0.938-0.938s0.42-0.938,0.938-0.938s0.938,0.42,0.938,0.938S41.961,56.313,41.443,56.313z" stroke="#969696"  stroke-width="0.1"/>
        <path stroke-miterlimit="10" fill="#DDDDDD" d="M51.927,53.412c-1.085,0-1.964,0.879-1.964,1.963c0,0.772,0.45,1.434,1.1,1.754v116.26c0,0.479,0.387,0.865,0.864,0.865s0.864-0.387,0.864-0.865V57.129c0.648-0.321,1.099-0.982,1.099-1.754C53.89,54.291,53.011,53.412,51.927,53.412z M51.927,56.313c-0.518,0-0.938-0.42-0.938-0.938s0.42-0.938,0.938-0.938s0.938,0.42,0.938,0.938S52.444,56.313,51.927,56.313z" stroke="#969696"  stroke-width="0.1"/>
    </g>
    <g gorn="0.9" id="silkscreen" >
        <path stroke-miterlimit="10" fill="none" d="M38.625,1.188V16.75H15.938V1.188H38.625z M38.625,9.5H15.938 M30.875,16.75V1.188 M23.563,1.188V16.75" stroke="#FFFFFF"  stroke-width="0.75"/>
        <g >
            <path fill="#FFFFFF" d="M34.688,25.835l0.615,0.615c0,0.816-0.01,1.236-0.03,1.257c-0.02,0.021-0.044,0.046-0.072,0.072c-0.028,0.027-0.058,0.055-0.088,0.085c-0.03,0.03-0.055,0.053-0.075,0.07c-0.026,0.023-0.059,0.052-0.097,0.087c-0.039,0.035-0.076,0.069-0.113,0.103c-0.036,0.033-0.083,0.073-0.14,0.12h-1.445v0.915c0,0.006-0.017,0.021-0.05,0.045s-0.06,0.038-0.08,0.045c-0.003,0-0.01,0.001-0.02,0.002c-0.011,0.001-0.019,0.002-0.025,0.002s-0.02-0.001-0.04-0.005c-0.017-0.007-0.036-0.021-0.058-0.045s-0.032-0.039-0.032-0.045v-3.325H34.688z M33.287,27.85c0.817,0,1.239-0.01,1.268-0.03s0.062-0.044,0.098-0.072c0.037-0.028,0.074-0.058,0.112-0.087c0.039-0.03,0.071-0.055,0.098-0.075c0.014-0.01,0.032-0.026,0.056-0.047c0.022-0.022,0.034-0.034,0.034-0.038v-0.965l-0.35-0.35h-1.315V27.85z" />
            <path fill="#FFFFFF" d="M35.803,27.5c0-0.003,0.01-0.016,0.03-0.038c0.02-0.021,0.044-0.046,0.072-0.072c0.028-0.027,0.058-0.055,0.088-0.085c0.029-0.03,0.055-0.053,0.074-0.07c0.023-0.02,0.054-0.044,0.091-0.072c0.036-0.028,0.073-0.057,0.112-0.085c0.038-0.028,0.071-0.053,0.1-0.073s0.044-0.03,0.048-0.03h1.135c0.003,0,0.02,0.01,0.048,0.03s0.062,0.044,0.1,0.073s0.076,0.057,0.112,0.085c0.037,0.028,0.066,0.052,0.09,0.072c0.021,0.017,0.045,0.04,0.075,0.07c0.03,0.03,0.06,0.058,0.088,0.085c0.028,0.026,0.053,0.051,0.072,0.072c0.021,0.022,0.03,0.034,0.03,0.038v1.135l-0.615,0.615h-1.135l-0.615-0.615V27.5z M36.503,28.9h0.965l0.35-0.35v-0.875c0-0.003-0.012-0.016-0.034-0.037c-0.023-0.022-0.042-0.04-0.056-0.053c-0.023-0.02-0.054-0.044-0.093-0.072c-0.038-0.028-0.076-0.057-0.114-0.085c-0.039-0.028-0.071-0.053-0.098-0.073s-0.042-0.03-0.045-0.03c-0.004,0-0.021-0.002-0.053-0.005c-0.031-0.003-0.068-0.005-0.11-0.007c-0.041-0.001-0.084-0.003-0.127-0.005c-0.044-0.002-0.078-0.002-0.105-0.002c-0.026,0-0.061,0-0.103,0.002c-0.041,0.001-0.083,0.003-0.125,0.005c-0.041,0.002-0.078,0.004-0.109,0.007c-0.032,0.003-0.05,0.005-0.053,0.005s-0.019,0.01-0.045,0.03s-0.06,0.044-0.098,0.073s-0.077,0.057-0.115,0.085s-0.069,0.052-0.092,0.072c-0.018,0.013-0.036,0.031-0.058,0.053c-0.022,0.021-0.033,0.034-0.033,0.037v0.875L36.503,28.9z" />
            <path fill="#FFFFFF" d="M38.668,27.075c0-0.007,0.011-0.021,0.032-0.042c0.021-0.022,0.037-0.034,0.045-0.038c0.009-0.003,0.018-0.006,0.028-0.008c0.01-0.001,0.018-0.002,0.024-0.002s0.015,0.001,0.025,0.002c0.01,0.002,0.017,0.003,0.02,0.003c0.021,0.006,0.047,0.021,0.08,0.042c0.033,0.021,0.05,0.036,0.05,0.042v1.49c0,0.003,0.012,0.016,0.035,0.038s0.052,0.047,0.085,0.075s0.067,0.057,0.103,0.085s0.064,0.049,0.088,0.063c0,0.003,0.005,0.006,0.015,0.007s0.019,0.002,0.025,0.002s0.015-0.001,0.024-0.002c0.011-0.001,0.017-0.004,0.021-0.007c0.01-0.007,0.036-0.028,0.08-0.063c0.043-0.035,0.089-0.073,0.138-0.113c0.048-0.04,0.094-0.077,0.137-0.11c0.044-0.033,0.068-0.053,0.075-0.058s0.015-0.008,0.025-0.01c0.01-0.002,0.018-0.002,0.024-0.002s0.016,0,0.025,0.002c0.01,0.001,0.017,0.002,0.02,0.002c0.011,0.01,0.037,0.032,0.08,0.065c0.044,0.033,0.09,0.07,0.138,0.11c0.049,0.04,0.095,0.078,0.138,0.113c0.043,0.035,0.071,0.056,0.085,0.063c0,0.003,0.005,0.006,0.015,0.007c0.011,0.001,0.019,0.002,0.025,0.002s0.015-0.001,0.025-0.002c0.01-0.001,0.017-0.004,0.02-0.007c0.023-0.014,0.052-0.034,0.085-0.063s0.066-0.057,0.1-0.085c0.034-0.028,0.063-0.054,0.085-0.075c0.023-0.021,0.035-0.034,0.035-0.038v-1.49c0-0.007,0.018-0.021,0.053-0.042c0.035-0.022,0.058-0.034,0.067-0.038s0.021-0.006,0.03-0.008c0.01-0.001,0.019-0.002,0.025-0.002c0.006,0,0.021,0.002,0.045,0.005c0.013,0.006,0.031,0.021,0.055,0.042c0.023,0.021,0.035,0.036,0.035,0.042v1.575c-0.41,0.41-0.62,0.617-0.63,0.62c-0.011,0.003-0.019,0.005-0.025,0.005s-0.021-0.003-0.045-0.01c-0.014-0.007-0.042-0.028-0.085-0.063c-0.043-0.035-0.089-0.073-0.138-0.113c-0.048-0.04-0.094-0.077-0.138-0.112c-0.043-0.035-0.069-0.056-0.08-0.063c-0.003,0-0.01-0.001-0.02-0.002c-0.01-0.002-0.019-0.002-0.025-0.002s-0.02,0.001-0.04,0.005c-0.013,0.007-0.041,0.027-0.085,0.063c-0.043,0.035-0.089,0.072-0.137,0.112c-0.049,0.04-0.095,0.078-0.138,0.113c-0.044,0.035-0.07,0.056-0.08,0.063c-0.004,0-0.01,0.001-0.021,0.005c-0.01,0.003-0.018,0.005-0.024,0.005s-0.021-0.003-0.04-0.01l-0.615-0.615V27.075z" />
            <path fill="#FFFFFF" d="M41.533,27.5l0.615-0.615h1.135l0.615,0.615v0.745h-1.945c0,0.01-0.005,0.03-0.015,0.06c-0.011,0.03-0.021,0.061-0.03,0.092s-0.019,0.063-0.025,0.093c-0.006,0.03-0.006,0.05,0,0.06c0.014,0.03,0.038,0.068,0.073,0.113c0.034,0.045,0.07,0.088,0.107,0.13c0.036,0.042,0.071,0.078,0.104,0.107c0.033,0.03,0.056,0.045,0.065,0.045h1.05c0.007,0,0.021,0.017,0.043,0.05c0.021,0.033,0.037,0.06,0.047,0.08v0.045v0.04c-0.007,0.017-0.021,0.036-0.045,0.057c-0.023,0.022-0.038,0.033-0.045,0.033h-1.135l-0.615-0.615V27.5z M43.605,27.797c-0.005-0.025-0.011-0.051-0.018-0.08c-0.007-0.028-0.014-0.055-0.022-0.08c-0.008-0.025-0.014-0.042-0.018-0.053c-0.017-0.026-0.041-0.06-0.074-0.1c-0.034-0.04-0.069-0.078-0.108-0.115c-0.038-0.037-0.073-0.068-0.104-0.095c-0.032-0.026-0.053-0.04-0.063-0.04h-0.965c-0.01,0-0.032,0.014-0.065,0.04c-0.033,0.027-0.068,0.059-0.104,0.095c-0.037,0.037-0.073,0.075-0.107,0.115c-0.035,0.04-0.06,0.074-0.073,0.1c-0.006,0.01-0.013,0.027-0.02,0.053c-0.007,0.025-0.015,0.052-0.022,0.08c-0.009,0.029-0.015,0.055-0.021,0.08c-0.005,0.025-0.007,0.042-0.007,0.053h1.8C43.613,27.84,43.61,27.822,43.605,27.797z" />
            <path fill="#FFFFFF" d="M44.528,26.97c0.007,0,0.021,0.001,0.045,0.005c0.01,0.007,0.026,0.021,0.05,0.042s0.037,0.036,0.04,0.042c0.004,0.02,0.011,0.055,0.021,0.105s0.019,0.103,0.027,0.157c0.008,0.055,0.017,0.108,0.025,0.158c0.008,0.05,0.012,0.085,0.012,0.105c0.017-0.013,0.046-0.036,0.088-0.067s0.086-0.067,0.133-0.105c0.046-0.039,0.091-0.074,0.132-0.107c0.042-0.034,0.071-0.057,0.088-0.07c0.023-0.02,0.054-0.044,0.093-0.072c0.038-0.028,0.076-0.057,0.114-0.085c0.039-0.028,0.071-0.053,0.098-0.073c0.027-0.02,0.042-0.03,0.045-0.03c0.004,0,0.017-0.002,0.04-0.005c0.023-0.003,0.052-0.006,0.085-0.008c0.033-0.001,0.067-0.003,0.101-0.005s0.06-0.002,0.08-0.002c0.01,0,0.029,0.001,0.06,0.002s0.061,0.003,0.093,0.005c0.031,0.002,0.063,0.004,0.093,0.008c0.029,0.003,0.05,0.005,0.06,0.005c0.01,0.007,0.025,0.021,0.048,0.042c0.021,0.021,0.035,0.036,0.042,0.042v0.045v0.045c-0.007,0.01-0.021,0.026-0.045,0.047c-0.023,0.022-0.038,0.035-0.045,0.038c-0.01,0.003-0.037,0.009-0.08,0.018s-0.089,0.017-0.138,0.025c-0.048,0.008-0.094,0.018-0.138,0.028c-0.043,0.01-0.069,0.017-0.079,0.02c-0.004,0-0.02,0.011-0.048,0.032c-0.028,0.022-0.062,0.046-0.1,0.073c-0.039,0.026-0.076,0.055-0.113,0.085c-0.036,0.03-0.066,0.053-0.09,0.07c-0.014,0.01-0.046,0.037-0.098,0.08s-0.107,0.09-0.167,0.14c-0.061,0.05-0.115,0.097-0.165,0.14c-0.05,0.043-0.082,0.07-0.095,0.08c-0.011,0.007-0.033,0.021-0.068,0.042c-0.034,0.022-0.057,0.036-0.067,0.042v1.05c0,0.006-0.017,0.021-0.05,0.045s-0.06,0.038-0.08,0.045c-0.003,0-0.01,0.001-0.02,0.002c-0.011,0.001-0.019,0.002-0.025,0.002s-0.02-0.001-0.04-0.005c-0.017-0.007-0.036-0.021-0.058-0.045s-0.032-0.039-0.032-0.045v-2.1c0-0.007,0.011-0.021,0.032-0.042s0.037-0.034,0.045-0.038c0.009-0.003,0.018-0.006,0.028-0.007C44.514,26.971,44.521,26.97,44.528,26.97z" />
        </g>
        <g >
            <path fill="#FFFFFF" d="M18.183,14.25c0-0.009,0.002-0.03,0.007-0.063c0.009-0.014,0.029-0.036,0.06-0.066s0.049-0.048,0.056-0.053c0.007-0.004,0.018-0.008,0.031-0.01c0.014-0.002,0.026-0.003,0.035-0.003s0.021,0.001,0.035,0.003c0.014,0.002,0.023,0.003,0.028,0.003c0.019,0.038,0.061,0.087,0.126,0.15s0.136,0.127,0.213,0.192c0.077,0.065,0.153,0.124,0.228,0.175s0.131,0.084,0.168,0.098c0.005,0.005,0.033,0.01,0.084,0.014c0.051,0.005,0.11,0.009,0.175,0.014c0.065,0.004,0.13,0.008,0.196,0.01c0.065,0.002,0.119,0.003,0.161,0.003c0.023,0,0.064-0.001,0.123-0.003c0.058-0.002,0.119-0.006,0.182-0.01c0.063-0.005,0.124-0.009,0.182-0.014c0.058-0.004,0.099-0.009,0.123-0.014c0.014-0.014,0.04-0.037,0.077-0.07c0.037-0.033,0.076-0.069,0.115-0.108s0.076-0.078,0.108-0.116c0.033-0.037,0.056-0.063,0.07-0.077c0.014-0.019,0.036-0.059,0.066-0.119s0.048-0.103,0.052-0.126c0.005-0.004,0.008-0.03,0.011-0.077c0.002-0.046,0.003-0.082,0.003-0.105s-0.001-0.058-0.003-0.105c-0.002-0.046-0.006-0.072-0.011-0.077c0-0.019-0.016-0.058-0.049-0.119s-0.056-0.103-0.07-0.126c-0.023-0.033-0.055-0.074-0.095-0.123c-0.04-0.049-0.079-0.097-0.119-0.144c-0.04-0.047-0.075-0.086-0.105-0.119c-0.03-0.033-0.048-0.049-0.052-0.049h-1.344l-0.861-0.917v-0.861l0.861-0.854h1.715c0.004,0,0.022,0.015,0.052,0.045s0.053,0.055,0.066,0.073c0.019,0.023,0.047,0.06,0.084,0.108c0.037,0.049,0.076,0.1,0.115,0.151s0.076,0.099,0.108,0.144c0.033,0.044,0.054,0.073,0.063,0.087c0.009,0.023,0.03,0.065,0.063,0.126s0.051,0.1,0.056,0.119c0.004,0.004,0.007,0.016,0.007,0.035c0,0.014,0,0.026,0,0.035s0,0.021,0,0.035c0,0.014-0.002,0.021-0.007,0.021c-0.009,0.014-0.029,0.036-0.06,0.066s-0.05,0.048-0.06,0.052c-0.004,0.005-0.024,0.008-0.06,0.011c-0.035,0.002-0.062,0.003-0.08,0.003c-0.014,0-0.034-0.001-0.06-0.003c-0.026-0.002-0.041-0.006-0.045-0.011l-0.616-0.609H19.17c-0.023,0-0.058,0.019-0.105,0.056c-0.047,0.037-0.096,0.082-0.147,0.133s-0.101,0.105-0.147,0.161c-0.047,0.056-0.077,0.103-0.091,0.14c0,0.004-0.002,0.019-0.007,0.042c-0.004,0.023-0.008,0.051-0.01,0.084s-0.005,0.065-0.007,0.098c-0.002,0.033-0.003,0.059-0.003,0.077c0,0.023,0.001,0.051,0.003,0.084c0.002,0.033,0.005,0.065,0.007,0.098s0.006,0.062,0.01,0.087c0.005,0.026,0.007,0.041,0.007,0.045c0.019,0.042,0.05,0.093,0.094,0.154c0.044,0.061,0.093,0.12,0.147,0.178c0.054,0.059,0.104,0.108,0.15,0.15c0.047,0.042,0.08,0.063,0.098,0.063h1.596c0.009,0.014,0.029,0.046,0.06,0.095c0.03,0.049,0.05,0.081,0.059,0.094c0.01,0.014,0.033,0.044,0.07,0.091c0.037,0.046,0.077,0.097,0.119,0.15s0.08,0.105,0.115,0.154c0.035,0.049,0.057,0.081,0.066,0.095s0.021,0.033,0.035,0.056s0.027,0.049,0.039,0.077c0.012,0.028,0.022,0.053,0.031,0.074s0.014,0.034,0.014,0.039c0,0.004,0.001,0.024,0.003,0.06c0.002,0.035,0.005,0.075,0.007,0.119c0.002,0.044,0.003,0.09,0.003,0.137c0,0.046,0,0.084,0,0.112c0,0.028,0,0.065,0,0.112c0,0.046-0.001,0.093-0.003,0.14c-0.002,0.047-0.005,0.086-0.007,0.119s-0.003,0.051-0.003,0.056c0,0.014-0.015,0.052-0.045,0.115s-0.055,0.106-0.074,0.129c-0.009,0.014-0.03,0.043-0.063,0.088s-0.069,0.092-0.108,0.144c-0.04,0.051-0.078,0.101-0.115,0.15c-0.038,0.049-0.065,0.085-0.084,0.108c-0.014,0.023-0.036,0.05-0.066,0.081s-0.048,0.045-0.052,0.045h-1.715c-0.574-0.574-0.862-0.868-0.864-0.882C18.184,14.271,18.183,14.26,18.183,14.25z" />
        </g>
        <g >
            <path fill="#FFFFFF" d="M27.478,10.856v1.646h1.583v0.42h-1.583v1.66h-0.448v-1.66h-1.583v-0.42h1.583v-1.646H27.478z" />
            <!-- Author: Richard Bruneau -->
        </g>
        <g >
            <path fill="#FFFFFF" d="M36.252,12.692v0.35H32.75v-0.35H36.252z" />
        </g>
    </g>
    <g gorn="0.10" id="copper1" >
        <path gorn="0.10.0" fill="#99906C" d="M22.31,4.875c0-1.231-0.998-2.229-2.229-2.229s-2.229,0.998-2.229,2.229s0.998,2.229,2.229,2.229S22.31,6.106,22.31,4.875z M18.748,4.875c0-0.736,0.597-1.333,1.333-1.333s1.333,0.597,1.333,1.333s-0.597,1.333-1.333,1.333S18.748,5.611,18.748,4.875z" id="connector8pin" />
        <path gorn="0.10.1" fill="#99906C" d="M25.052,4.875c0,1.231,0.998,2.229,2.229,2.229s2.229-0.998,2.229-2.229s-0.998-2.229-2.229-2.229S25.052,3.644,25.052,4.875z M28.614,4.875c0,0.736-0.597,1.333-1.333,1.333s-1.333-0.597-1.333-1.333s0.597-1.333,1.333-1.333S28.614,4.139,28.614,4.875z" id="connector9pin" />
        <path gorn="0.10.2" fill="#99906C" d="M32.252,4.875c0,1.231,0.998,2.229,2.229,2.229c1.23,0,2.229-0.998,2.229-2.229s-0.998-2.229-2.229-2.229C33.25,2.646,32.252,3.644,32.252,4.875z M35.814,4.875c0,0.736-0.597,1.333-1.333,1.333s-1.334-0.597-1.334-1.333s0.598-1.333,1.334-1.333S35.814,4.139,35.814,4.875z" id="connector10pin" />
    </g>
</svg>
