<?xml version='1.0' encoding='UTF-8' standalone='no'?>
<!-- Generator: Adobe Illustrator 15.0.0, SVG Export Plug-In . SVG Version: 6.00 Build 0)  -->
<svg xmlns="http://www.w3.org/2000/svg" x="0px" height="85.039368" xml:space="preserve" width="113.38581" gorn="0" viewBox="0 0 113.38581 85.039365" version="1.1" y="0px"  id="Capa_1" enable-background="new 0 0 90.71 172.727" xmlns:xml="http://www.w3.org/XML/1998/namespace">
    <desc >
        <referenceFile >pir2.svg</referenceFile>
    </desc>
    <metadata  id="metadata361">
        <rdf:RDF xmlns:rdf="http://www.w3.org/1999/02/22-rdf-syntax-ns#">
            <cc:Work xmlns:cc="http://creativecommons.org/ns#" rdf:about="" xmlns:rdf="http://www.w3.org/1999/02/22-rdf-syntax-ns#">
                <dc:format xmlns:dc="http://purl.org/dc/elements/1.1/">image/svg+xml</dc:format>
                <dc:type xmlns:dc="http://purl.org/dc/elements/1.1/" rdf:resource="http://purl.org/dc/dcmitype/StillImage" xmlns:rdf="http://www.w3.org/1999/02/22-rdf-syntax-ns#"/>
                <dc:title xmlns:dc="http://purl.org/dc/elements/1.1/"/>
            </cc:Work>
        </rdf:RDF>
    </metadata>
    <defs  id="defs359"/>
    <g  transform="translate(-4.2321932,2.2446419e-7)">
        <g >
            <g gorn="0.3.0.0"  id="g4359">
                <path fill="#008d36" gorn="0.3.0.0.0" stroke="#02006a"  style="opacity:1;fill-rule:evenodd;stroke-linejoin:round;stroke-miterlimit:4;stroke-dasharray:none;stroke-dashoffset:0;" stroke-width="0" id="ellipse21110" d="m 115.39095,42.519681 a 3.5433042,3.5433035 0 0 1 -3.54331,3.543304 3.5433042,3.5433035 0 0 1 -3.5433,-3.543304 3.5433042,3.5433035 0 0 1 3.5433,-3.543303 3.5433042,3.5433035 0 0 1 3.54331,3.543303 z m -101.999996,0 A 3.5433042,3.5433035 0 0 1 9.8476498,46.062985 3.5433042,3.5433035 0 0 1 6.3043456,42.519681 3.5433042,3.5433035 0 0 1 9.8476498,38.976378 3.5433042,3.5433035 0 0 1 13.390954,42.519681 Z M 4.2321982,4.9999999e-6 l 113.3858018,0 0,85.0393570000001 -113.3858018,0 z" fill-opacity="1" stroke-opacity="1"/>
                <g  transform="matrix(1.1105372,0,0,1.1105372,-2.034484,0.0555224)">
                    <g >
                        <g gorn="0.3.0.0.1.0.0"  id="g4298">
                            <rect height="76.474983" x="18.455425" width="76.474968" fill="#f9f9f9" gorn="0.3.0.0.1.0.0.0" stroke="#02006a" y="4.9999999e-06"  style="opacity:0.93500001;fill-rule:evenodd;stroke-linejoin:round;stroke-miterlimit:4;stroke-dasharray:none;stroke-dashoffset:0;" stroke-width="0" id="rect19588" fill-opacity="1" ry="1.2800335" stroke-opacity="1"/>
                            <circle cx="56.692909" fill="#f2f2f2" gorn="0.3.0.0.1.0.0.1" stroke="#9d9d9d" r="38.237492" cy="38.237495"  style="opacity:1;fill-rule:evenodd;stroke-linejoin:round;stroke-miterlimit:4;stroke-dasharray:none;stroke-dashoffset:0;" stroke-width="0.1" id="path19590" fill-opacity="1" stroke-opacity="1"/>
                            <path fill="#e6e6e6" gorn="0.3.0.0.1.0.0.2" stroke="#999999"  style="opacity:1;fill-rule:evenodd;stroke-linejoin:round;stroke-miterlimit:4;stroke-dasharray:none;stroke-dashoffset:0;" stroke-width="0.175" id="path4197" d="m 65.463682,43.185111 -8.670147,5.121904 -8.770773,-4.947615 -0.100626,-10.06952 8.670147,-5.121904 8.770773,4.947615 z" fill-opacity="1" stroke-opacity="1"/>
                            <path fill="#e6e6e6" gorn="0.3.0.0.1.0.0.3" stroke="#999999"  style="opacity:1;fill-rule:evenodd;stroke-linejoin:round;stroke-miterlimit:4;stroke-dasharray:none;stroke-dashoffset:0;" stroke-width="0.175" id="path4203" d="m 47.995188,43.185111 -8.670147,5.121904 -8.770773,-4.947615 -0.100626,-10.06952 8.670147,-5.121904 8.770773,4.947615 z" fill-opacity="1" stroke-opacity="1"/>
                            <path fill="#e6e6e6" gorn="0.3.0.0.1.0.0.4" stroke="#999999"  style="opacity:1;fill-rule:evenodd;stroke-linejoin:round;stroke-miterlimit:4;stroke-dasharray:none;stroke-dashoffset:0;" stroke-width="0.175" id="path4205" d="M 82.932196,43.185111 74.262049,48.307015 65.491276,43.3594 65.39065,33.28988 l 8.670147,-5.121904 8.770773,4.947615 z" fill-opacity="1" stroke-opacity="1"/>
                            <path fill="#e6e6e6" gorn="0.3.0.0.1.0.0.5" stroke="#999999"  style="opacity:1;fill-rule:evenodd;stroke-linejoin:round;stroke-miterlimit:4;stroke-dasharray:none;stroke-dashoffset:0;" stroke-width="0.175" id="path4207" d="m 56.754244,28.069335 -8.670147,5.121904 -8.770773,-4.947615 -0.100626,-10.06952 8.670147,-5.121904 8.770773,4.947615 z" fill-opacity="1" stroke-opacity="1"/>
                            <path fill="#e6e6e6" gorn="0.3.0.0.1.0.0.6" stroke="#999999"  style="opacity:1;fill-rule:evenodd;stroke-linejoin:round;stroke-miterlimit:4;stroke-dasharray:none;stroke-dashoffset:0;" stroke-width="0.175" id="path4209" d="M 74.222746,28.069335 65.552599,33.191239 56.781826,28.243624 56.6812,18.174104 65.351347,13.0522 74.12212,17.999815 Z" fill-opacity="1" stroke-opacity="1"/>
                            <path fill="#e6e6e6" gorn="0.3.0.0.1.0.0.7" stroke="#999999"  style="opacity:1;fill-rule:evenodd;stroke-linejoin:round;stroke-miterlimit:4;stroke-dasharray:none;stroke-dashoffset:0;" stroke-width="0.175" id="path4211" d="m 56.754244,58.268966 -8.670147,5.121904 -8.770773,-4.947615 -0.100626,-10.06952 8.670147,-5.121905 8.770773,4.947616 z" fill-opacity="1" stroke-opacity="1"/>
                            <path fill="#e6e6e6" gorn="0.3.0.0.1.0.0.8" stroke="#999999"  style="opacity:1;fill-rule:evenodd;stroke-linejoin:round;stroke-miterlimit:4;stroke-dasharray:none;stroke-dashoffset:0;" stroke-width="0.175" id="path4213" d="M 74.222746,58.268966 65.552599,63.39087 56.781826,58.443255 56.6812,48.373735 65.351347,43.25183 74.12212,48.199446 Z" fill-opacity="1" stroke-opacity="1"/>
                        </g>
                    </g>
                </g>
                <g  transform="translate(4.2321931,0)">
                    <g >
                        <g gorn="0.3.0.0.2.0.0"  id="g4309">
                            <g  transform="matrix(1.2499996,0,0,0.61100569,35.1823,76.257994)">
                                <g >
                                    <polygon points="13.566,8.927 13.566,5.587 13.566,1.654 12.057,0.143 8.125,0.143 6.611,1.654 6.611,5.587 6.611,8.927 6.611,12.861 8.125,14.372 12.057,14.372 13.566,12.861 " gorn="0.3.0.0.2.0.0.0.0.0"  style="fill:#ffdd55" id="_x30_.1.2.0.0.0.0.4"/>
                                </g>
                            </g>
                            <g  transform="matrix(0,1,-1,0,195.0587,42.37132)">
                                <g >
                                    <g gorn="0.3.0.0.2.0.0.1.0.0"  id="g31596">
                                        <g  transform="matrix(-1.2499996,3.1838827e-6,-3.1838827e-6,-1.2499996,51.129181,151.6979)">
                                            <g >
                                                <g gorn="0.3.0.0.2.0.0.1.0.0.0.0.0"  id="g26375">
                                                    <g gorn="0.3.0.0.2.0.0.1.0.0.0.0.0.0"  id="g26377">
                                                        <g gorn="0.3.0.0.2.0.0.1.0.0.0.0.0.0.0"  id="g26379">
                                                            <g gorn="0.3.0.0.2.0.0.1.0.0.0.0.0.0.0.0"  id="_x30_.1.2.0.0.0.0.8">
                                                                <rect height="2.2980001" x="9.0970001" gorn="0.3.0.0.2.0.0.1.0.0.0.0.0.0.0.0.0" width="2.299" y="2.556"  style="fill:#8d8c8c" id="_x30_.1.2.0.0.0.0.8.0"/>
                                                            </g>
                                                        </g>
                                                    </g>
                                                </g>
                                            </g>
                                        </g>
                                        <g  transform="matrix(-1.2499996,3.1838827e-6,-3.1838827e-6,-1.2499996,51.128181,151.69765)">
                                            <g >
                                                <g gorn="0.3.0.0.2.0.0.1.0.0.1.0.0"  id="g26443">
                                                    <g gorn="0.3.0.0.2.0.0.1.0.0.1.0.0.0"  id="g26445">
                                                        <g gorn="0.3.0.0.2.0.0.1.0.0.1.0.0.0.0"  id="g26447">
                                                            <g gorn="0.3.0.0.2.0.0.1.0.0.1.0.0.0.0.0"  id="_x30_.1.2.0.0.0.0.27">
                                                                <rect height="1.184" x="9.6549997" gorn="0.3.0.0.2.0.0.1.0.0.1.0.0.0.0.0.0" width="1.1849999" y="3.112"  style="fill:#8c8663" id="_x30_.1.2.0.0.0.0.27.0"/>
                                                            </g>
                                                        </g>
                                                    </g>
                                                </g>
                                            </g>
                                        </g>
                                        <g  transform="matrix(0,-1.2499996,1.2499996,0,33.698311,159.8764)">
                                            <g >
                                                <polygon gorn="0.3.0.0.2.0.0.1.0.0.2.0.0" points="10.839,3.107 10.839,4.287 11.396,4.845 11.396,2.55 "  style="fill:#b8af82" id="_x30_.1.2.0.0.0.0.28"/>
                                            </g>
                                        </g>
                                        <g  transform="matrix(0,-1.2499996,1.2499996,0,33.698311,159.8764)">
                                            <g >
                                                <polygon gorn="0.3.0.0.2.0.0.1.0.0.3.0.0" points="10.839,4.287 11.396,4.845 9.099,4.845 9.655,4.287 "  style="fill:#80795b" id="_x30_.1.2.0.0.0.0.29"/>
                                            </g>
                                        </g>
                                        <g  transform="matrix(0,-1.2499996,1.2499996,0,33.698311,159.8764)">
                                            <g >
                                                <polygon gorn="0.3.0.0.2.0.0.1.0.0.4.0.0" points="9.655,4.287 9.099,4.845 9.099,2.55 9.655,3.107 "  style="fill:#5e5b43" id="_x30_.1.2.0.0.0.0.30"/>
                                            </g>
                                        </g>
                                        <g  transform="matrix(0,-1.2499996,1.2499996,0,33.698311,159.8764)">
                                            <g >
                                                <polygon gorn="0.3.0.0.2.0.0.1.0.0.5.0.0" points="10.839,3.107 9.655,3.107 9.099,2.55 11.396,2.55 "  style="fill:#9a916c" id="_x30_.1.2.0.0.0.0.31"/>
                                            </g>
                                        </g>
                                    </g>
                                </g>
                            </g>
                            <g  transform="matrix(1.2499996,0,0,0.61100569,44.09392,76.257994)">
                                <g >
                                    <polygon gorn="0.3.0.0.2.0.0.2.0.0" points="12.057,14.372 13.566,12.861 13.566,8.927 13.566,5.587 13.566,1.654 12.057,0.143 8.125,0.143 6.611,1.654 6.611,5.587 6.611,8.927 6.611,12.861 8.125,14.372 "  style="fill:#ffdd55" id="polygon31664"/>
                                </g>
                            </g>
                            <g  transform="matrix(0,1,-1,0,203.97032,42.37132)">
                                <g >
                                    <g gorn="0.3.0.0.2.0.0.3.0.0"  id="g31666">
                                        <g  transform="matrix(-1.2499996,3.1838827e-6,-3.1838827e-6,-1.2499996,51.129181,151.6979)">
                                            <g >
                                                <g gorn="0.3.0.0.2.0.0.3.0.0.0.0.0"  id="g31668">
                                                    <g gorn="0.3.0.0.2.0.0.3.0.0.0.0.0.0"  id="g31670">
                                                        <g gorn="0.3.0.0.2.0.0.3.0.0.0.0.0.0.0"  id="g31672">
                                                            <g gorn="0.3.0.0.2.0.0.3.0.0.0.0.0.0.0.0"  id="g31674">
                                                                <rect x="9.0970001" height="2.2980001" width="2.299" gorn="0.3.0.0.2.0.0.3.0.0.0.0.0.0.0.0.0" y="2.556"  style="fill:#8d8c8c" id="rect31676"/>
                                                            </g>
                                                        </g>
                                                    </g>
                                                </g>
                                            </g>
                                        </g>
                                        <g  transform="matrix(-1.2499996,3.1838827e-6,-3.1838827e-6,-1.2499996,51.128181,151.69765)">
                                            <g >
                                                <g gorn="0.3.0.0.2.0.0.3.0.0.1.0.0"  id="g31678">
                                                    <g gorn="0.3.0.0.2.0.0.3.0.0.1.0.0.0"  id="g31680">
                                                        <g gorn="0.3.0.0.2.0.0.3.0.0.1.0.0.0.0"  id="g31682">
                                                            <g gorn="0.3.0.0.2.0.0.3.0.0.1.0.0.0.0.0"  id="g31684">
                                                                <rect x="9.6549997" height="1.184" width="1.1849999" gorn="0.3.0.0.2.0.0.3.0.0.1.0.0.0.0.0.0" y="3.112"  style="fill:#8c8663" id="rect31686"/>
                                                            </g>
                                                        </g>
                                                    </g>
                                                </g>
                                            </g>
                                        </g>
                                        <g  transform="matrix(0,-1.2499996,1.2499996,0,33.698311,159.8764)">
                                            <g >
                                                <polygon points="11.396,4.845 11.396,2.55 10.839,3.107 10.839,4.287 " gorn="0.3.0.0.2.0.0.3.0.0.2.0.0"  style="fill:#b8af82" id="polygon31688"/>
                                            </g>
                                        </g>
                                        <g  transform="matrix(0,-1.2499996,1.2499996,0,33.698311,159.8764)">
                                            <g >
                                                <polygon points="9.099,4.845 9.655,4.287 10.839,4.287 11.396,4.845 " gorn="0.3.0.0.2.0.0.3.0.0.3.0.0"  style="fill:#80795b" id="polygon31690"/>
                                            </g>
                                        </g>
                                        <g  transform="matrix(0,-1.2499996,1.2499996,0,33.698311,159.8764)">
                                            <g >
                                                <polygon points="9.099,2.55 9.655,3.107 9.655,4.287 9.099,4.845 " gorn="0.3.0.0.2.0.0.3.0.0.4.0.0"  style="fill:#5e5b43" id="polygon31692"/>
                                            </g>
                                        </g>
                                        <g  transform="matrix(0,-1.2499996,1.2499996,0,33.698311,159.8764)">
                                            <g >
                                                <polygon points="9.099,2.55 11.396,2.55 10.839,3.107 9.655,3.107 " gorn="0.3.0.0.2.0.0.3.0.0.5.0.0"  style="fill:#9a916c" id="polygon31694"/>
                                            </g>
                                        </g>
                                    </g>
                                </g>
                            </g>
                            <g  transform="matrix(1.2499996,0,0,0.61100569,52.98227,76.257994)">
                                <g >
                                    <polygon points="6.611,12.861 8.125,14.372 12.057,14.372 13.566,12.861 13.566,8.927 13.566,5.587 13.566,1.654 12.057,0.143 8.125,0.143 6.611,1.654 6.611,5.587 6.611,8.927 " gorn="0.3.0.0.2.0.0.4.0.0"  style="fill:#ffdd55" id="polygon31698"/>
                                </g>
                            </g>
                            <g  transform="matrix(0,1,-1,0,212.85867,42.37132)">
                                <g >
                                    <g gorn="0.3.0.0.2.0.0.5.0.0"  id="g31700">
                                        <g  transform="matrix(-1.2499996,3.1838827e-6,-3.1838827e-6,-1.2499996,51.129181,151.6979)">
                                            <g >
                                                <g gorn="0.3.0.0.2.0.0.5.0.0.0.0.0"  id="g31702">
                                                    <g gorn="0.3.0.0.2.0.0.5.0.0.0.0.0.0"  id="g31704">
                                                        <g gorn="0.3.0.0.2.0.0.5.0.0.0.0.0.0.0"  id="g31706">
                                                            <g gorn="0.3.0.0.2.0.0.5.0.0.0.0.0.0.0.0"  id="g31708">
                                                                <rect height="2.2980001" x="9.0970001" gorn="0.3.0.0.2.0.0.5.0.0.0.0.0.0.0.0.0" width="2.299" y="2.556"  style="fill:#8d8c8c" id="rect31710"/>
                                                            </g>
                                                        </g>
                                                    </g>
                                                </g>
                                            </g>
                                        </g>
                                        <g  transform="matrix(-1.2499996,3.1838827e-6,-3.1838827e-6,-1.2499996,51.128181,151.69765)">
                                            <g >
                                                <g gorn="0.3.0.0.2.0.0.5.0.0.1.0.0"  id="g31712">
                                                    <g gorn="0.3.0.0.2.0.0.5.0.0.1.0.0.0"  id="g31714">
                                                        <g gorn="0.3.0.0.2.0.0.5.0.0.1.0.0.0.0"  id="g31716">
                                                            <g gorn="0.3.0.0.2.0.0.5.0.0.1.0.0.0.0.0"  id="g31718">
                                                                <rect height="1.184" x="9.6549997" gorn="0.3.0.0.2.0.0.5.0.0.1.0.0.0.0.0.0" width="1.1849999" y="3.112"  style="fill:#8c8663" id="rect31720"/>
                                                            </g>
                                                        </g>
                                                    </g>
                                                </g>
                                            </g>
                                        </g>
                                        <g  transform="matrix(0,-1.2499996,1.2499996,0,33.698311,159.8764)">
                                            <g >
                                                <polygon gorn="0.3.0.0.2.0.0.5.0.0.2.0.0" points="10.839,3.107 10.839,4.287 11.396,4.845 11.396,2.55 "  style="fill:#b8af82" id="polygon31722"/>
                                            </g>
                                        </g>
                                        <g  transform="matrix(0,-1.2499996,1.2499996,0,33.698311,159.8764)">
                                            <g >
                                                <polygon gorn="0.3.0.0.2.0.0.5.0.0.3.0.0" points="10.839,4.287 11.396,4.845 9.099,4.845 9.655,4.287 "  style="fill:#80795b" id="polygon31724"/>
                                            </g>
                                        </g>
                                        <g  transform="matrix(0,-1.2499996,1.2499996,0,33.698311,159.8764)">
                                            <g >
                                                <polygon gorn="0.3.0.0.2.0.0.5.0.0.4.0.0" points="9.655,4.287 9.099,4.845 9.099,2.55 9.655,3.107 "  style="fill:#5e5b43" id="polygon31726"/>
                                            </g>
                                        </g>
                                        <g  transform="matrix(0,-1.2499996,1.2499996,0,33.698311,159.8764)">
                                            <g >
                                                <polygon gorn="0.3.0.0.2.0.0.5.0.0.5.0.0" points="10.839,3.107 9.655,3.107 9.099,2.55 11.396,2.55 "  style="fill:#9a916c" id="polygon31728"/>
                                            </g>
                                        </g>
                                    </g>
                                </g>
                            </g>
                        </g>
                    </g>
                </g>
            </g>
        </g>
    </g>
</svg>
