<svg xmlns="http://www.w3.org/2000/svg" height="122.1"  viewBox="0 0 122.1 122.1" width="122.1">
    <desc >
        <referenceFile >KY033_ViewGraphic.svg</referenceFile>
    </desc>
    <title >KY033_ViewGraphic</title>
    <rect height="122.06" fill="#f2f2f2"  width="122.1"/>
    <line fill="none"  stroke-width="0.7" y1="57.6" y2="57.6" x1="85.5" x2="105" stroke="#000"/>
    <rect height="57.6" stroke-linecap="round" fill="#fff"  stroke-width="0.9" x="35.8" y="28.8" stroke="#000" width="43.2"/>
    <line stroke-linecap="round" fill="none" stroke-linejoin="round"  stroke-width="0.7" id="connector2pin" y1="57.6" y2="57.6" x1="79" x2="86.2" stroke="#555" gorn="0.5"/>
    <line stroke-linecap="round" fill="none" stroke-linejoin="round"  stroke-width="0.7" id="connector0pin" y1="86.4" y2="93.6" x1="57.4" x2="57.4" stroke="#555" gorn="0.6"/>
    <line stroke-linecap="round" fill="none" stroke-linejoin="round"  stroke-width="0.7" id="connector1pin" y1="28.8" y2="21.6" x1="57.4" x2="57.4" stroke="#555" gorn="0.7"/>
    <g  style="isolation:isolate">
        <g transform="translate(28.6 21.6)" >
            <g >
                <g >
                    <g >
                        <g >
                            <g >
                                <path fill="#555" d="M31.6,3.9H30.3V3.6l0.5-.6L31,2.9V2.1H30.5V2h1.1V2.7L31.2,3,31,3.2l-0.4.4h1V3.9Z" />
                            </g>
                        </g>
                    </g>
                </g>
            </g>
        </g>
    </g>
    <g  style="isolation:isolate">
        <g transform="translate(28.6 21.6)" >
            <g >
                <g >
                    <g >
                        <g >
                            <g >
                                <path fill="#555" d="M31.6,67.5v0.3H31.1l0.4,0.2a0.5,0.5,0,0,1,.1.3V69H30.3V68.8h1V68.3H30.6V67.9h0.7V67.5H30.4V67.2h1.1v0.4Z" />
                            </g>
                        </g>
                    </g>
                </g>
            </g>
        </g>
    </g>
    <g  style="isolation:isolate">
        <g transform="translate(28.6 21.6)" >
            <g >
                <g >
                    <g >
                        <g >
                            <g >
                                <path fill="#555" d="M54.4,33.7H54.1V32.4H53.9l-0.2.2V32l0.6-.4h0.2v2.1Z" />
                            </g>
                        </g>
                    </g>
                </g>
            </g>
        </g>
    </g>
    <g  style="isolation:isolate">
        <g transform="translate(28.6 21.6)" >
            <g >
                <g >
                    <g >
                        <g >
                            <g >
                                <path fill="#555" d="M26.3,60.8h1.1v1.6H25.7l-0.4-.3L25,61.6a2.3,2.3,0,0,1-.1-0.7,2.1,2.1,0,0,1,.1-0.7l0.3-.5,0.5-.3h1.6l-0.2.4H25.9l-0.3.3-0.2.4a1.8,1.8,0,0,0-.1.5,2.1,2.1,0,0,0,.1.5l0.2,0.4,0.3,0.3H27v-1H26.3V60.8Z" />
                            </g>
                        </g>
                    </g>
                </g>
            </g>
        </g>
        <g transform="translate(28.6 21.6)" >
            <g >
                <g >
                    <g >
                        <g >
                            <g >
                                <path fill="#555" d="M29.6,62.5V60.9a0.7,0.7,0,0,0-.1-0.4H28.8l-0.2.2v0.3a1.9,1.9,0,0,0,0,.4v1.3H28.1V60.1h0.3v0.3h0V60.2h0.6l0.6,0.2a0.9,0.9,0,0,1,.2.7v1.6H29.6Z" />
                            </g>
                        </g>
                    </g>
                </g>
            </g>
        </g>
        <g transform="translate(28.6 21.6)" >
            <g >
                <g >
                    <g >
                        <g >
                            <g >
                                <path fill="#555" d="M32.2,62.2H31.2l-0.3-.2-0.2-.4a2,2,0,0,1-.1-0.5,2,2,0,0,1,.1-0.5l0.2-.4,0.3-.2h1.1v-1h0.4v3.4H32.3V62.2Zm-0.6,0h0.3l0.2-.2V61.7a1.9,1.9,0,0,0,0-.4h0a2.4,2.4,0,0,0,0-.4V60.6l-0.2-.2H31.6a0.5,0.5,0,0,0-.4.2,1.4,1.4,0,0,0-.1.7,1.3,1.3,0,0,0,.1.7A0.5,0.5,0,0,0,31.6,62.2Z" />
                            </g>
                        </g>
                    </g>
                </g>
            </g>
        </g>
    </g>
    <g  style="isolation:isolate">
        <g transform="translate(28.6 21.6)" >
            <g >
                <g >
                    <g >
                        <g >
                            <g >
                                <path fill="#555" d="M27.6,9.3h0.4L27,12.5H26.6L25.5,9.3h0.4l0.6,2v0Z" />
                            </g>
                        </g>
                    </g>
                </g>
            </g>
        </g>
    </g>
    <g  style="isolation:isolate">
        <g transform="translate(28.6 21.6)" >
            <g >
                <g >
                    <g >
                        <g >
                            <g >
                                <path fill="#555" d="M29.2,12.6H28.8l-0.3-.2-0.2-.4a1.7,1.7,0,0,1-.1-0.6,1.8,1.8,0,0,1,.1-0.6l0.2-.4,0.3-.2h1v0.3H29.3a0.6,0.6,0,0,0-.5.2,1.2,1.2,0,0,0-.2.7,1.1,1.1,0,0,0,.2.7l0.5,0.2h0.6v0.4H29.2Z" />
                            </g>
                        </g>
                    </g>
                </g>
            </g>
        </g>
    </g>
    <g  style="isolation:isolate">
        <g transform="translate(28.6 21.6)" >
            <g >
                <g >
                    <g >
                        <g >
                            <g >
                                <path fill="#555" d="M31.3,12.6H30.9l-0.3-.2-0.2-.4a1.7,1.7,0,0,1-.1-0.6,1.8,1.8,0,0,1,.1-0.6l0.2-.4,0.3-.2h1v0.3H31.3a0.6,0.6,0,0,0-.5.2,1.2,1.2,0,0,0-.2.7,1.1,1.1,0,0,0,.2.7l0.5,0.2h0.6v0.4H31.3Z" />
                            </g>
                        </g>
                    </g>
                </g>
            </g>
        </g>
    </g>
    <g  style="isolation:isolate">
        <g transform="translate(28.6 21.6)" >
            <g >
                <g >
                    <g >
                        <g >
                            <g >
                                <path fill="#555" d="M43.8,35.5a2.4,2.4,0,0,1-.1.7l-0.3.5L43,37H41.8l-0.4-.3-0.3-.5a2.6,2.6,0,0,1-.1-0.7,2.5,2.5,0,0,1,.1-0.7l0.3-.5,0.4-.3H43l0.4,0.3,0.3,0.5A2.4,2.4,0,0,1,43.8,35.5Zm-2.4,0a2.3,2.3,0,0,0,.1.5l0.2,0.4L42,36.7h0.9l0.3-.3,0.2-.4a2.7,2.7,0,0,0,0-1.1l-0.2-.4-0.3-.3H42l-0.3.3-0.2.4A2.4,2.4,0,0,0,41.4,35.5Z" />
                            </g>
                        </g>
                    </g>
                </g>
            </g>
        </g>
        <g transform="translate(28.6 21.6)" >
            <g >
                <g >
                    <g >
                        <g >
                            <g >
                                <path fill="#555" d="M46,37.1V36.7h0v0.2H44.9l-0.3-.2-0.2-.3a1.3,1.3,0,0,1-.1-0.4V34.7h0.4v1.6a0.7,0.7,0,0,0,.1.4h0.7l0.2-.2V36.3a2,2,0,0,0,0-.4V34.7h0.4v2.4H46Z" />
                            </g>
                        </g>
                    </g>
                </g>
            </g>
        </g>
        <g transform="translate(28.6 21.6)" >
            <g >
                <g >
                    <g >
                        <g >
                            <g >
                                <path fill="#555" d="M47.8,36.8h0.3V37H47.3V36.7a1.2,1.2,0,0,1,0-.4V35H46.8V34.8l0.3-.2,0.2-.5h0.2v0.6h0.6V35H47.5v1.4a0.6,0.6,0,0,0,.1.3h0.2Z" />
                            </g>
                        </g>
                    </g>
                </g>
            </g>
        </g>
    </g>
    <g  style="isolation:isolate">
        <g transform="translate(28.6 21.6)" >
            <g >
                <g >
                    <g >
                        <g >
                            <g >
                                <path d="M26,21.4H25.4l-1.3-2-0.4.3v1.7H23.1V17.1h0.5v2.1l0.4-.5,1.3-1.6h0.6L24.4,19Z" />
                            </g>
                        </g>
                    </g>
                </g>
            </g>
        </g>
        <g transform="translate(28.6 21.6)" >
            <g >
                <g >
                    <g >
                        <g >
                            <g >
                                <path d="M27.6,19.3l1-2.2h0.6l-1.3,2.6v1.7H27.3V19.8L26,17.1h0.6Z" />
                            </g>
                        </g>
                    </g>
                </g>
            </g>
        </g>
        <g transform="translate(28.6 21.6)" >
            <g >
                <g >
                    <g >
                        <g >
                            <g >
                                <path d="M32.2,19.3a5.2,5.2,0,0,1-.1.9,2.1,2.1,0,0,1-.2.7l-0.4.4H30.2l-0.4-.4a2.2,2.2,0,0,1-.3-0.7,4.7,4.7,0,0,1-.1-0.9,5.2,5.2,0,0,1,.1-0.9,2.2,2.2,0,0,1,.2-0.7l0.4-.4h1.2l0.4,0.4a2.2,2.2,0,0,1,.3.7A4.6,4.6,0,0,1,32.2,19.3Zm-2.2,0a5.9,5.9,0,0,0,0,.8,2,2,0,0,0,.1.5l0.3,0.3h0.8l0.3-.3a1.9,1.9,0,0,0,.1-0.5,5.7,5.7,0,0,0,0-.8,5.7,5.7,0,0,0,0-.8,1.9,1.9,0,0,0-.1-0.5l-0.3-.3H30.4l-0.3.3a2,2,0,0,0-.1.5A5.9,5.9,0,0,0,30,19.3Z" />
                            </g>
                        </g>
                    </g>
                </g>
            </g>
        </g>
        <g transform="translate(28.6 21.6)" >
            <g >
                <g >
                    <g >
                        <g >
                            <g >
                                <path d="M35.3,18.1a1.1,1.1,0,0,1-.1.4l-0.2.3-0.3.2H34.4a1.3,1.3,0,0,1,.8.3,0.9,0.9,0,0,1,.3.7,1.4,1.4,0,0,1-.1.5l-0.3.4-0.5.3H33.2l-0.5-.2V20.7L33.3,21h1l0.3-.2,0.2-.3a1,1,0,0,0,.1-0.4,0.7,0.7,0,0,0-.1-0.3l-0.2-.2H33.4V19h0.8l0.3-.2,0.2-.3a0.8,0.8,0,0,0,.1-0.3,0.7,0.7,0,0,0-.1-0.3V17.7H33.4l-0.5.3-0.3-.4,0.2-.2h1.6L35,17.4l0.2,0.3A1.1,1.1,0,0,1,35.3,18.1Z" />
                            </g>
                        </g>
                    </g>
                </g>
            </g>
        </g>
        <g transform="translate(28.6 21.6)" >
            <g >
                <g >
                    <g >
                        <g >
                            <g >
                                <path d="M38.6,18.1a1.1,1.1,0,0,1-.1.4l-0.2.3L38,19H37.7a1.3,1.3,0,0,1,.8.3,0.9,0.9,0,0,1,.3.7,1.4,1.4,0,0,1-.1.5l-0.3.4-0.5.3H36.5L36,21.2V20.7L36.6,21h1l0.3-.2,0.2-.3a1,1,0,0,0,.1-0.4,0.7,0.7,0,0,0-.1-0.3l-0.2-.2H36.7V19h0.8l0.3-.2,0.2-.3a0.8,0.8,0,0,0,.1-0.3,0.7,0.7,0,0,0-.1-0.3V17.7H36.8l-0.5.3L36,17.5l0.2-.2h1.6l0.4,0.2,0.2,0.3A1.1,1.1,0,0,1,38.6,18.1Z" />
                            </g>
                        </g>
                    </g>
                </g>
            </g>
        </g>
    </g>
</svg>
