<?xml version='1.0' encoding='UTF-8' standalone='no'?>
<!-- Created with Fritzing (http://www.fritzing.org/) -->
<svg xmlns="http://www.w3.org/2000/svg" height="0.3in" version="1.2"  baseProfile="tiny" x="0in" y="0in" viewBox="0 0 54 21.6" width="0.75in">
    <desc >
        <referenceFile >HIH-4030_Breakout-v10_pcb.svg</referenceFile>
    </desc>
    <desc >Fritzing footprint generated by brd2svg</desc>
    <g  stroke-width="0" id="silkscreen" gorn="0.2">
        <path fill="none" d="M0.288,21.312L53.712,21.312L53.712,0.288L0.288,0.288L0.288,21.312"  stroke-width="0.576" stroke="white"/>
        <g  stroke-width="0">
            <title >element:JP1</title>
            <g  stroke-width="0">
                <title >package:1X03</title>
                <line stroke-linecap="round"  stroke-width="0.576" y1="14.4" y2="16.2" x1="5.4" x2="7.2" stroke="white"/>
                <line stroke-linecap="round"  stroke-width="0.576" y1="16.2" y2="19.8" x1="7.2" x2="7.2" stroke="white"/>
                <line stroke-linecap="round"  stroke-width="0.576" y1="19.8" y2="21.6" x1="7.2" x2="5.4" stroke="white"/>
                <line stroke-linecap="round"  stroke-width="0.576" y1="21.6" y2="19.8" x1="1.8" x2="0" stroke="white"/>
                <line stroke-linecap="round"  stroke-width="0.576" y1="19.8" y2="16.2" x1="0" x2="0" stroke="white"/>
                <line stroke-linecap="round"  stroke-width="0.576" y1="16.2" y2="14.4" x1="0" x2="1.8" stroke="white"/>
                <line stroke-linecap="round"  stroke-width="0.576" y1="1.8" y2="5.4" x1="7.2" x2="7.2" stroke="white"/>
                <line stroke-linecap="round"  stroke-width="0.576" y1="5.4" y2="7.2" x1="7.2" x2="5.4" stroke="white"/>
                <line stroke-linecap="round"  stroke-width="0.576" y1="7.2" y2="5.4" x1="1.8" x2="0" stroke="white"/>
                <line stroke-linecap="round"  stroke-width="0.576" y1="7.2" y2="9" x1="5.4" x2="7.2" stroke="white"/>
                <line stroke-linecap="round"  stroke-width="0.576" y1="9" y2="12.6" x1="7.2" x2="7.2" stroke="white"/>
                <line stroke-linecap="round"  stroke-width="0.576" y1="12.6" y2="14.4" x1="7.2" x2="5.4" stroke="white"/>
                <line stroke-linecap="round"  stroke-width="0.576" y1="14.4" y2="12.6" x1="1.8" x2="0" stroke="white"/>
                <line stroke-linecap="round"  stroke-width="0.576" y1="12.6" y2="9" x1="0" x2="0" stroke="white"/>
                <line stroke-linecap="round"  stroke-width="0.576" y1="9" y2="7.2" x1="0" x2="1.8" stroke="white"/>
                <line stroke-linecap="round"  stroke-width="0.576" y1="0" y2="0" x1="5.4" x2="1.8" stroke="white"/>
                <line stroke-linecap="round"  stroke-width="0.576" y1="1.8" y2="0" x1="7.2" x2="5.4" stroke="white"/>
                <line stroke-linecap="round"  stroke-width="0.576" y1="0" y2="1.8" x1="1.8" x2="0" stroke="white"/>
                <line stroke-linecap="round"  stroke-width="0.576" y1="5.4" y2="1.8" x1="0" x2="0" stroke="white"/>
                <line stroke-linecap="round"  stroke-width="0.576" y1="21.6" y2="21.6" x1="5.4" x2="1.8" stroke="white"/>
            </g>
        </g>
        <g  stroke-width="0">
            <title >element:U1</title>
            <g  stroke-width="0">
                <title >package:HIH-4030</title>
                <line stroke-linecap="round"  stroke-width="0.576" y1="4.32" y2="4.32" x1="43.56" x2="45.72" stroke="white"/>
                <line stroke-linecap="round"  stroke-width="0.576" y1="4.32" y2="6.12" x1="45.72" x2="45.72" stroke="white"/>
                <line stroke-linecap="round"  stroke-width="0.576" y1="16.92" y2="16.92" x1="43.56" x2="45.72" stroke="white"/>
                <line stroke-linecap="round"  stroke-width="0.576" y1="16.92" y2="15.48" x1="45.72" x2="45.72" stroke="white"/>
                <line stroke-linecap="round"  stroke-width="0.576" y1="4.68" y2="4.68" x1="22.32" x2="20.52" stroke="white"/>
                <line stroke-linecap="round"  stroke-width="0.576" y1="4.68" y2="5.76" x1="20.52" x2="20.52" stroke="white"/>
                <line stroke-linecap="round"  stroke-width="0.576" y1="15.84" y2="16.92" x1="20.52" x2="20.52" stroke="white"/>
                <line stroke-linecap="round"  stroke-width="0.576" y1="16.92" y2="16.92" x1="20.52" x2="22.32" stroke="white"/>
            </g>
        </g>
    </g>
    <g  stroke-width="0" id="copper1" gorn="0.3">
        <g  stroke-width="0" id="copper0" gorn="0.3.0">
            <circle r="2.052" fill="none"  stroke-width="1.224" id="connector1pad" connectorname="OUT" cx="3.6" cy="10.8" stroke="#F7BD13" gorn="0.3.0.0"/>
            <circle r="2.052" fill="none"  stroke-width="1.224" id="connector2pad" connectorname="VCC" cx="3.6" cy="18" stroke="#F7BD13" gorn="0.3.0.1"/>
            <circle r="2.052" fill="none"  stroke-width="1.224" id="connector0pad" connectorname="GND" cx="3.6" cy="3.6" stroke="#F7BD13" gorn="0.3.0.2"/>
        </g>
    </g>
</svg>
