<?xml version='1.0' encoding='UTF-8' standalone='no'?>
<!-- Created with Fritzing (http://www.fritzing.org/) -->
<svg xmlns="http://www.w3.org/2000/svg" height="124.2" width="112.79401" version="1.2" x="0in" y="0in"  id="svg2" viewBox="0 0 90.235211 99.359995" gorn="0">
    <desc >
        <referenceFile >X113647_bb.svg</referenceFile>
    </desc>
    <metadata  id="metadata73"/>
    <defs  id="defs71"/>
    <g  transform="translate(2.2064229e-4,-1.0707003e-6)">
        <g >
            <g >
                <g  id="g4" gorn="0.3.0.0.0">
                    <g  transform="matrix(0.80000005,0,0,0.80000005,0,-4.5396512e-6)">
                        <g >
                            <g >
                                <path d="M 0 0 L 0 124.1875 L 112.5 124.1875 L 112.5 0 L 0 0 z M 106.75 2.1875 C 109.06959 2.1875 110.9375 4.0553999 110.9375 6.375 C 110.9375 8.69459 109.06959 10.59375 106.75 10.59375 C 104.4304 10.59375 102.53125 8.69459 102.53125 6.375 C 102.53125 4.0553999 104.4304 2.1875 106.75 2.1875 z M 6.125 2.5 C 8.444596 2.5 10.3125 4.39916 10.3125 6.71875 C 10.3125 9.03835 8.444596 10.90625 6.125 10.90625 C 3.805404 10.90625 1.9375 9.03835 1.9375 6.71875 C 1.9375 4.39916 3.805404 2.5 6.125 2.5 z M 106.5625 114.09375 C 108.88209 114.09375 110.78125 115.96165 110.78125 118.28125 C 110.78125 120.60085 108.88209 122.5 106.5625 122.5 C 104.2429 122.5 102.375 120.60085 102.375 118.28125 C 102.375 115.96165 104.2429 114.09375 106.5625 114.09375 z M 5.96875 114.40625 C 8.288346 114.40625 10.15625 116.3054 10.15625 118.625 C 10.15625 120.9446 8.288346 122.8125 5.96875 122.8125 C 3.649154 122.8125 1.75 120.9446 1.75 118.625 C 1.75 116.3054 3.649154 114.40625 5.96875 114.40625 z " fill="#1f7a34"  fill-opacity="1" id="breadboard" stroke="none" gorn="0.3.0.0.0.0.0.0.0" style="fill-rule:evenodd;"/>
                            </g>
                        </g>
                    </g>
                    <g  transform="translate(10.8,29.96)">
                        <g >
                            <g >
                                <g  id="stepper_connector" gorn="0.3.0.0.0.1.0.0.0">
                                    <rect height="14.4" width="43.200001" fill="#e8e8e8" x="0" stroke-opacity="1" y="0"  stroke-width="2.16000009" id="rect3747" stroke="#ffffff" gorn="0.3.0.0.0.1.0.0.0.0" style="stroke-miterlimit:4;stroke-dasharray:none"/>
                                    <rect height="2.1600001" width="2.1600001" x="6.1999998" y="6.1999998"  id="connector7pin" gorn="0.3.0.0.0.1.0.0.0.1" style="fill:#b88a00"/>
                                    <rect height="2.1600001" width="2.1600001" x="13.4" y="6.1999998"  id="connector8pin" gorn="0.3.0.0.0.1.0.0.0.2" style="fill:#b88a00"/>
                                    <rect height="2.1600001" width="2.1600001" x="20.6" y="6.1999998"  id="connector9pin" gorn="0.3.0.0.0.1.0.0.0.3" style="fill:#b88a00"/>
                                    <rect height="2.1600001" width="2.1600001" x="27.799999" y="6.1999998"  id="connector10pin" gorn="0.3.0.0.0.1.0.0.0.4" style="fill:#b88a00"/>
                                    <rect height="2.1600001" width="2.1600001" x="35" y="6.1999998"  id="connector11pin" gorn="0.3.0.0.0.1.0.0.0.5" style="fill:#b88a00"/>
                                </g>
                            </g>
                        </g>
                    </g>
                    <g  transform="translate(3.2636042,48.954063)">
                        <g >
                            <g >
                                <g  id="chip" gorn="0.3.0.0.0.2.0.0.0">
                                    <metadata  id="metadata3028">
                                        <rdf:RDF xmlns:rdf="http://www.w3.org/1999/02/22-rdf-syntax-ns#">
                                            <cc:Work xmlns:cc="http://creativecommons.org/ns#" rdf:about="" xmlns:rdf="http://www.w3.org/1999/02/22-rdf-syntax-ns#">
                                                <dc:format xmlns:dc="http://purl.org/dc/elements/1.1/">image/svg+xml</dc:format>
                                                <dc:type rdf:resource="http://purl.org/dc/dcmitype/StillImage" xmlns:dc="http://purl.org/dc/elements/1.1/" xmlns:rdf="http://www.w3.org/1999/02/22-rdf-syntax-ns#"/>
                                                <dc:title xmlns:dc="http://purl.org/dc/elements/1.1/"/>
                                            </cc:Work>
                                        </rdf:RDF>
                                    </metadata>
                                    <defs  id="defs3026"/>
                                    <g  id="g3114" gorn="0.3.0.0.0.2.0.0.0.2">
                                        <rect height="19.440001" width="57.599998" fill="#303030" x="0" y="2.1600001"  stroke-width="0" id="middle" gorn="0.3.0.0.0.2.0.0.0.2.0"/>
                                        <rect height="1.7711999" width="57.599998" fill="#3d3d3d" x="0" y="2.1600001"  stroke-width="0" id="top" gorn="0.3.0.0.0.2.0.0.0.2.1"/>
                                        <rect height="1.7711999" width="57.599998" fill="#000000" x="0" y="19.8288"  stroke-width="0" id="bottom" gorn="0.3.0.0.0.2.0.0.0.2.2"/>
                                        <polygon fill="#141414"  stroke-width="0" id="right" gorn="0.3.0.0.0.2.0.0.0.2.3" points="57.06,3.9312 57.06,19.8288 57.6,21.6 57.6,2.16 "/>
                                        <polygon fill="#1f1f1f"  stroke-width="0" id="left" gorn="0.3.0.0.0.2.0.0.0.2.4" points="0.54,3.9312 0.54,19.8288 0,21.6 0,2.16 "/>
                                        <polygon fill="#1c1c1c"  stroke-width="0" id="left-upper-rect" gorn="0.3.0.0.0.2.0.0.0.2.5" points="0.54,8.2512 0.4032,9.7776 0.4032,11.88 3.6,11.88 3.6,8.28 "/>
                                        <polygon fill="#383838"  stroke-width="0" id="left-lower-rect" gorn="0.3.0.0.0.2.0.0.0.2.6" points="3.6,15.516 3.6,11.88 0.4032,11.88 0.4032,13.9824 0.54,15.516 "/>
                                        <path d="m 0.4032,9.7776 0,4.1976 C 1.4616,13.8528 2.2896,12.9672 2.2896,11.8728 2.2896,10.7784 1.4688,9.9 0.4032,9.7776 z" fill="#262626"  stroke-width="0" id="slot" gorn="0.3.0.0.0.2.0.0.0.2.7"/>
                                        <path d="m 0.54,3.9312 0,4.3128 c 1.7136,0.324 3.0168,1.8216 3.0168,3.6288 0,1.8072 -1.296,3.312 -3.0168,3.636 l 0,0.0072 3.6,0 0,-11.5848 -3.6,0 z" fill="#303030"  stroke-width="0" id="cover" gorn="0.3.0.0.0.2.0.0.0.2.8"/>
                                        <circle d="m 6.1631998,16.898399 c 0,0.819149 -0.6640513,1.4832 -1.4832,1.4832 -0.8191487,0 -1.4831999,-0.664051 -1.4831999,-1.4832 0,-0.819148 0.6640512,-1.4832 1.4831999,-1.4832 0.8191487,0 1.4832,0.664052 1.4832,1.4832 z" fill="#212121"  stroke-width="0" id="circle2957" gorn="0.3.0.0.0.2.0.0.0.2.9" cx="4.6799998" r="1.4832" cy="16.898399"/>
                                        <text fill="#e6e6e6" x="7.8799996" y="13.48"  font-size="4.8" id="label" stroke="none" gorn="0.3.0.0.0.2.0.0.0.2.10" style="text-anchor:start;font-family:OCRA">ULN2003APG</text>
                                        <rect height="3.1248" width="2.1600001" fill="#8c8c8c" x="2.52" y="20.635201"  stroke-width="0" id="ULNconnector0pin" gorn="0.3.0.0.0.2.0.0.0.2.11"/>
                                        <g height="2.16" width="2.16" fill="#8c8c8c" x="2.52" y="21.6"  stroke-width="0" id="connector0terminal" gorn="0.3.0.0.0.2.0.0.0.2.12"/>
                                        <polygon fill="#8c8c8c"  stroke-width="0" id="polygon2962" gorn="0.3.0.0.0.2.0.0.0.2.13" points="2.52,22.0752 4.68,22.0752 6.12,21.4128 6.12,20.6352 2.52,20.6352 "/>
                                        <rect height="3.1248" width="2.1600001" fill="#8c8c8c" x="2.52" y="0"  stroke-width="0" id="ULNconnector15pin" gorn="0.3.0.0.0.2.0.0.0.2.14"/>
                                        <g height="2.16" width="2.16" fill="#8c8c8c" x="2.52" y="0"  stroke-width="0" id="connector15terminal" gorn="0.3.0.0.0.2.0.0.0.2.15"/>
                                        <polygon fill="#8c8c8c"  stroke-width="0" id="polygon2966" gorn="0.3.0.0.0.2.0.0.0.2.16" points="6.12,2.3472 4.68,1.6848 2.52,1.6848 2.52,3.1248 6.12,3.1248 "/>
                                        <rect height="3.1248" width="2.1600001" fill="#8c8c8c" x="52.919998" y="20.635201"  stroke-width="0" id="ULNconnector7pin" gorn="0.3.0.0.0.2.0.0.0.2.17"/>
                                        <g height="2.16" width="2.16" fill="#8c8c8c" x="52.92" y="21.6"  stroke-width="0" id="connector7terminal" gorn="0.3.0.0.0.2.0.0.0.2.18"/>
                                        <polygon fill="#8c8c8c"  stroke-width="0" id="polygon2970" gorn="0.3.0.0.0.2.0.0.0.2.19" points="51.48,21.4128 52.92,22.0752 55.08,22.0752 55.08,20.6352 51.48,20.6352 "/>
                                        <rect height="3.1248" width="2.1600001" fill="#8c8c8c" x="52.919998" y="0"  stroke-width="0" id="ULNconnector8pin" gorn="0.3.0.0.0.2.0.0.0.2.20"/>
                                        <g height="2.16" width="2.16" fill="#8c8c8c" x="52.92" y="0"  stroke-width="0" id="connector8terminal" gorn="0.3.0.0.0.2.0.0.0.2.21"/>
                                        <polygon fill="#8c8c8c"  stroke-width="0" id="polygon2974" gorn="0.3.0.0.0.2.0.0.0.2.22" points="55.08,1.6848 52.92,1.6848 51.48,2.3472 51.48,3.1248 55.08,3.1248 "/>
                                        <rect height="3.1248" width="2.1600001" fill="#8c8c8c" x="9.7200003" y="20.635201"  stroke-width="0" id="ULNconnector1pin" gorn="0.3.0.0.0.2.0.0.0.2.23"/>
                                        <g height="2.16" width="2.16" fill="#8c8c8c" x="9.72" y="21.6"  stroke-width="0" id="connector1terminal" gorn="0.3.0.0.0.2.0.0.0.2.24"/>
                                        <polygon fill="#8c8c8c"  stroke-width="0" id="polygon2978" gorn="0.3.0.0.0.2.0.0.0.2.25" points="11.88,22.0752 13.32,21.4128 13.32,20.6352 8.28,20.6352 8.28,21.4128 9.72,22.0752 "/>
                                        <rect height="3.1248" width="2.1600001" fill="#8c8c8c" x="9.7200003" y="0"  stroke-width="0" id="ULNconnector14pin" gorn="0.3.0.0.0.2.0.0.0.2.26"/>
                                        <g height="2.16" width="2.16" fill="#8c8c8c" x="9.72" y="0"  stroke-width="0" id="connector14terminal" gorn="0.3.0.0.0.2.0.0.0.2.27"/>
                                        <polygon fill="#8c8c8c"  stroke-width="0" id="polygon2982" gorn="0.3.0.0.0.2.0.0.0.2.28" points="9.72,1.6848 8.28,2.3472 8.28,3.1248 13.32,3.1248 13.32,2.3472 11.88,1.6848 "/>
                                        <rect height="3.1248" width="2.1600001" fill="#8c8c8c" x="16.92" y="20.635201"  stroke-width="0" id="ULNconnector2pin" gorn="0.3.0.0.0.2.0.0.0.2.29"/>
                                        <g height="2.16" width="2.16" fill="#8c8c8c" x="16.92" y="21.6"  stroke-width="0" id="connector2terminal" gorn="0.3.0.0.0.2.0.0.0.2.30"/>
                                        <polygon fill="#8c8c8c"  stroke-width="0" id="polygon2986" gorn="0.3.0.0.0.2.0.0.0.2.31" points="19.08,22.0752 20.52,21.4128 20.52,20.6352 15.48,20.6352 15.48,21.4128 16.92,22.0752 "/>
                                        <rect height="3.1248" width="2.1600001" fill="#8c8c8c" x="16.92" y="0"  stroke-width="0" id="ULNconnector13pin" gorn="0.3.0.0.0.2.0.0.0.2.32"/>
                                        <g height="2.16" width="2.16" fill="#8c8c8c" x="16.92" y="0"  stroke-width="0" id="connector13terminal" gorn="0.3.0.0.0.2.0.0.0.2.33"/>
                                        <polygon fill="#8c8c8c"  stroke-width="0" id="polygon2990" gorn="0.3.0.0.0.2.0.0.0.2.34" points="16.92,1.6848 15.48,2.3472 15.48,3.1248 20.52,3.1248 20.52,2.3472 19.08,1.6848 "/>
                                        <rect height="3.1248" width="2.1600001" fill="#8c8c8c" x="24.120001" y="20.635201"  stroke-width="0" id="ULNconnector3pin" gorn="0.3.0.0.0.2.0.0.0.2.35"/>
                                        <g height="2.16" width="2.16" fill="#8c8c8c" x="24.12" y="21.6"  stroke-width="0" id="connector3terminal" gorn="0.3.0.0.0.2.0.0.0.2.36"/>
                                        <polygon fill="#8c8c8c"  stroke-width="0" id="polygon2994" gorn="0.3.0.0.0.2.0.0.0.2.37" points="26.28,22.0752 27.72,21.4128 27.72,20.6352 22.68,20.6352 22.68,21.4128 24.12,22.0752 "/>
                                        <rect height="3.1248" width="2.1600001" fill="#8c8c8c" x="24.120001" y="0"  stroke-width="0" id="ULNconnector12pin" gorn="0.3.0.0.0.2.0.0.0.2.38"/>
                                        <g height="2.16" width="2.16" fill="#8c8c8c" x="24.12" y="0"  stroke-width="0" id="connector12terminal" gorn="0.3.0.0.0.2.0.0.0.2.39"/>
                                        <polygon fill="#8c8c8c"  stroke-width="0" id="polygon2998" gorn="0.3.0.0.0.2.0.0.0.2.40" points="24.12,1.6848 22.68,2.3472 22.68,3.1248 27.72,3.1248 27.72,2.3472 26.28,1.6848 "/>
                                        <rect height="3.1248" width="2.1600001" fill="#8c8c8c" x="31.32" y="20.635201"  stroke-width="0" id="ULNconnector4pin" gorn="0.3.0.0.0.2.0.0.0.2.41"/>
                                        <g height="2.16" width="2.16" fill="#8c8c8c" x="31.32" y="21.6"  stroke-width="0" id="connector4terminal" gorn="0.3.0.0.0.2.0.0.0.2.42"/>
                                        <polygon fill="#8c8c8c"  stroke-width="0" id="polygon3002" gorn="0.3.0.0.0.2.0.0.0.2.43" points="33.48,22.0752 34.92,21.4128 34.92,20.6352 29.88,20.6352 29.88,21.4128 31.32,22.0752 "/>
                                        <rect height="3.1248" width="2.1600001" fill="#8c8c8c" x="31.32" y="0"  stroke-width="0" id="ULNconnector11pin" gorn="0.3.0.0.0.2.0.0.0.2.44"/>
                                        <g height="2.16" width="2.16" fill="#8c8c8c" x="31.32" y="0"  stroke-width="0" id="connector11terminal" gorn="0.3.0.0.0.2.0.0.0.2.45"/>
                                        <polygon fill="#8c8c8c"  stroke-width="0" id="polygon3006" gorn="0.3.0.0.0.2.0.0.0.2.46" points="31.32,1.6848 29.88,2.3472 29.88,3.1248 34.92,3.1248 34.92,2.3472 33.48,1.6848 "/>
                                        <rect height="3.1248" width="2.1600001" fill="#8c8c8c" x="38.52" y="20.635201"  stroke-width="0" id="ULNconnector5pin" gorn="0.3.0.0.0.2.0.0.0.2.47"/>
                                        <g height="2.16" width="2.16" fill="#8c8c8c" x="38.52" y="21.6"  stroke-width="0" id="connector5terminal" gorn="0.3.0.0.0.2.0.0.0.2.48"/>
                                        <polygon fill="#8c8c8c"  stroke-width="0" id="polygon3010" gorn="0.3.0.0.0.2.0.0.0.2.49" points="40.68,22.0752 42.12,21.4128 42.12,20.6352 37.08,20.6352 37.08,21.4128 38.52,22.0752 "/>
                                        <rect height="3.1248" width="2.1600001" fill="#8c8c8c" x="38.52" y="0"  stroke-width="0" id="ULNconnector10pin" gorn="0.3.0.0.0.2.0.0.0.2.50"/>
                                        <g height="2.16" width="2.16" fill="#8c8c8c" x="38.52" y="0"  stroke-width="0" id="connector10terminal" gorn="0.3.0.0.0.2.0.0.0.2.51"/>
                                        <polygon fill="#8c8c8c"  stroke-width="0" id="polygon3014" gorn="0.3.0.0.0.2.0.0.0.2.52" points="38.52,1.6848 37.08,2.3472 37.08,3.1248 42.12,3.1248 42.12,2.3472 40.68,1.6848 "/>
                                        <rect height="3.1248" width="2.1600001" fill="#8c8c8c" x="45.720001" y="20.635201"  stroke-width="0" id="ULNconnector6pin" gorn="0.3.0.0.0.2.0.0.0.2.53"/>
                                        <g height="2.16" width="2.16" fill="#8c8c8c" x="45.72" y="21.6"  stroke-width="0" id="connector6terminal" gorn="0.3.0.0.0.2.0.0.0.2.54"/>
                                        <polygon fill="#8c8c8c"  stroke-width="0" id="polygon3018" gorn="0.3.0.0.0.2.0.0.0.2.55" points="47.88,22.0752 49.32,21.4128 49.32,20.6352 44.28,20.6352 44.28,21.4128 45.72,22.0752 "/>
                                        <rect height="3.1248" width="2.1600001" fill="#8c8c8c" x="45.720001" y="0"  stroke-width="0" id="ULNconnector9pin" gorn="0.3.0.0.0.2.0.0.0.2.56"/>
                                        <g height="2.16" width="2.16" fill="#8c8c8c" x="45.72" y="0"  stroke-width="0" id="connector9terminal" gorn="0.3.0.0.0.2.0.0.0.2.57"/>
                                        <polygon fill="#8c8c8c"  stroke-width="0" id="polygon3022" gorn="0.3.0.0.0.2.0.0.0.2.58" points="45.72,1.6848 44.28,2.3472 44.28,3.1248 49.32,3.1248 49.32,2.3472 47.88,1.6848 "/>
                                    </g>
                                </g>
                            </g>
                        </g>
                    </g>
                    <g  transform="translate(31.069784,32.669999)">
                        <g >
                            <g >
                                <g  id="power" gorn="0.3.0.0.0.3.0.0.0">
                                    <g  id="GND" gorn="0.3.0.0.0.3.0.0.0.0">
                                        <rect height="7.427" width="3.7130001" x="41.771" y="35.223"  id="rect3109" gorn="0.3.0.0.0.3.0.0.0.0.0" style="fill:#444444"/>
                                        <polygon  id="polygon3111" gorn="0.3.0.0.0.3.0.0.0.0.1" points="47.34,37.08 47.34,40.793 45.483,42.65 45.483,35.223 " style="fill:#444444"/>
                                        <polygon  id="polygon3113" gorn="0.3.0.0.0.3.0.0.0.0.2" points="41.771,35.223 41.771,42.65 39.914,40.793 39.914,37.08 " style="fill:#444444"/>
                                        <rect height="1.668" width="1.313" x="42.971001" y="38.103001"  id="connector5pin" gorn="0.3.0.0.0.3.0.0.0.0.3" style="fill:#b88a00"/>
                                    </g>
                                    <g  transform="translate(-7.4402,-6.9600004)">
                                        <g >
                                            <g >
                                                <g  id="VCC" gorn="0.3.0.0.0.3.0.0.0.1.0.0.0">
                                                    <rect height="7.427" width="3.7130001" x="49.268002" y="35.223"  id="rect3119" gorn="0.3.0.0.0.3.0.0.0.1.0.0.0.0" style="fill:#444444"/>
                                                    <polygon  id="polygon3121" gorn="0.3.0.0.0.3.0.0.0.1.0.0.0.1" points="54.838,40.793 52.98,42.65 52.98,35.223 54.838,37.08 " style="fill:#444444"/>
                                                    <polygon  id="polygon3123" gorn="0.3.0.0.0.3.0.0.0.1.0.0.0.2" points="49.268,42.65 47.411,40.793 47.411,37.08 49.268,35.223 " style="fill:#444444"/>
                                                    <rect height="1.668" width="1.313" x="50.469002" y="38.103001"  id="connector6pin" gorn="0.3.0.0.0.3.0.0.0.1.0.0.0.3" style="fill:#b88a00"/>
                                                </g>
                                            </g>
                                        </g>
                                    </g>
                                </g>
                            </g>
                        </g>
                    </g>
                    <text fill="#e6e6e6" x="64" y="18"  font-size="4" id="boardlabel" stroke="none" gorn="0.3.0.0.0.4" style="text-anchor:start;font-family:OCRA">X113647</text>
                    <g  id="leds" gorn="0.3.0.0.0.5">
                        <g  transform="matrix(0.80000005,0,0,0.80000005,0,-4.5396512e-6)">
                            <g >
                                <g >
                                    <path d="m 28.9,19.4 c 0,3.58985 -2.91015,6.5 -6.5,6.5 -3.589851,0 -6.5,-2.91015 -6.5,-6.5 0,-3.589851 2.910149,-6.5 6.5,-6.5 3.58985,0 6.5,2.910149 6.5,6.5 z" fill="#d0d0d0" stroke-opacity="1"  stroke-width="1.40000093" fill-opacity="1" id="path4932" stroke="#ffffff" gorn="0.3.0.0.0.5.0.0.0.0" style="stroke-miterlimit:4;stroke-dasharray:none"/>
                                </g>
                            </g>
                        </g>
                        <g  transform="matrix(0.80000005,0,0,0.80000005,0,-4.5396512e-6)">
                            <g >
                                <g >
                                    <path d="m 45.5,19.4 c 0,3.58985 -2.910149,6.5 -6.5,6.5 -3.589851,0 -6.5,-2.91015 -6.5,-6.5 0,-3.589851 2.910149,-6.5 6.5,-6.5 3.589851,0 6.5,2.910149 6.5,6.5 z" fill="#d0d0d0" stroke-opacity="1"  stroke-width="1.40000093" fill-opacity="1" id="path4934" stroke="#ffffff" gorn="0.3.0.0.0.5.1.0.0.0" style="stroke-miterlimit:4;stroke-dasharray:none"/>
                                </g>
                            </g>
                        </g>
                        <g  transform="matrix(0.80000005,0,0,0.80000005,0,-4.5396512e-6)">
                            <g >
                                <g >
                                    <path d="m 62.099998,19.4 c 0,3.58985 -2.910149,6.5 -6.5,6.5 -3.58985,0 -6.5,-2.91015 -6.5,-6.5 0,-3.589851 2.91015,-6.5 6.5,-6.5 3.589851,0 6.5,2.910149 6.5,6.5 z" fill="#d0d0d0" stroke-opacity="1"  stroke-width="1.40000093" fill-opacity="1" id="path4936" stroke="#ffffff" gorn="0.3.0.0.0.5.2.0.0.0" style="stroke-miterlimit:4;stroke-dasharray:none"/>
                                </g>
                            </g>
                        </g>
                        <g  transform="matrix(0.80000005,0,0,0.80000005,0,-4.5396512e-6)">
                            <g >
                                <g >
                                    <path d="m 78.699997,19.4 c 0,3.58985 -2.910149,6.5 -6.5,6.5 -3.589851,0 -6.5,-2.91015 -6.5,-6.5 0,-3.589851 2.910149,-6.5 6.5,-6.5 3.589851,0 6.5,2.910149 6.5,6.5 z" fill="#d0d0d0" stroke-opacity="1"  stroke-width="1.40000093" fill-opacity="1" id="path4938" stroke="#ffffff" gorn="0.3.0.0.0.5.3.0.0.0" style="stroke-miterlimit:4;stroke-dasharray:none"/>
                                </g>
                            </g>
                        </g>
                        <text fill="#e6e6e6" x="16" y="26"  font-size="4" id="led1" stroke="none" gorn="0.3.0.0.0.5.4" style="text-anchor:start;font-family:OCRA">A</text>
                        <text fill="#e6e6e6" x="29" y="26"  font-size="4" id="led2" stroke="none" gorn="0.3.0.0.0.5.5" style="text-anchor:start;font-family:OCRA">B</text>
                        <text fill="#e6e6e6" x="42" y="26"  font-size="4" id="led3" stroke="none" gorn="0.3.0.0.0.5.6" style="text-anchor:start;font-family:OCRA">C</text>
                        <text fill="#e6e6e6" x="55" y="26"  font-size="4" id="led4" stroke="none" gorn="0.3.0.0.0.5.7" style="text-anchor:start;font-family:OCRA">D</text>
                    </g>
                    <g  transform="translate(-25.70622,41.254)">
                        <g >
                            <g >
                                <g  id="inputs" gorn="0.3.0.0.0.6.0.0.0">
                                    <g  id="g1519" gorn="0.3.0.0.0.6.0.0.0.0">
                                        <rect height="7.427" width="3.7130001" x="41.771" y="35.223"  id="rect1521" gorn="0.3.0.0.0.6.0.0.0.0.0" style="fill:#444444"/>
                                        <polygon  id="polygon1523" gorn="0.3.0.0.0.6.0.0.0.0.1" points="47.34,40.793 45.483,42.65 45.483,35.223 47.34,37.08 " style="fill:#444444"/>
                                        <polygon  id="polygon1525" gorn="0.3.0.0.0.6.0.0.0.0.2" points="41.771,42.65 39.914,40.793 39.914,37.08 41.771,35.223 " style="fill:#444444"/>
                                        <rect height="1.668" width="1.313" x="42.971001" y="38.103001"  id="connector1pin" gorn="0.3.0.0.0.6.0.0.0.0.3" style="fill:#b88a00"/>
                                    </g>
                                    <g  id="g1529" gorn="0.3.0.0.0.6.0.0.0.1">
                                        <rect height="7.427" width="3.7130001" x="49.268002" y="35.223"  id="rect1531" gorn="0.3.0.0.0.6.0.0.0.1.0" style="fill:#444444"/>
                                        <polygon  id="polygon1533" gorn="0.3.0.0.0.6.0.0.0.1.1" points="54.838,40.793 52.98,42.65 52.98,35.223 54.838,37.08 " style="fill:#444444"/>
                                        <polygon  id="polygon1535" gorn="0.3.0.0.0.6.0.0.0.1.2" points="49.268,42.65 47.411,40.793 47.411,37.08 49.268,35.223 " style="fill:#444444"/>
                                        <rect height="1.668" width="1.313" x="50.469002" y="38.103001"  id="connector2pin" gorn="0.3.0.0.0.6.0.0.0.1.3" style="fill:#b88a00"/>
                                    </g>
                                    <g  id="g1507" gorn="0.3.0.0.0.6.0.0.0.2">
                                        <rect height="7.427" width="3.7130001" x="56.757" y="35.223"  id="rect1509" gorn="0.3.0.0.0.6.0.0.0.2.0" style="fill:#444444"/>
                                        <polygon  id="polygon1511" gorn="0.3.0.0.0.6.0.0.0.2.1" points="62.326,40.793 60.47,42.65 60.47,35.223 62.326,37.08 " style="fill:#444444"/>
                                        <polygon  id="polygon1513" gorn="0.3.0.0.0.6.0.0.0.2.2" points="56.757,42.65 54.9,40.793 54.9,37.08 56.757,35.223 " style="fill:#444444"/>
                                        <rect height="1.668" width="1.313" x="57.957001" y="38.103001"  id="connector3pin" gorn="0.3.0.0.0.6.0.0.0.2.3" style="fill:#b88a00"/>
                                    </g>
                                    <g  transform="translate(7.4396018,0)">
                                        <g >
                                            <g >
                                                <g  id="g3095" gorn="0.3.0.0.0.6.0.0.0.3.0.0.0">
                                                    <rect height="7.427" width="3.7130001" x="56.757" y="35.223"  id="rect3097" gorn="0.3.0.0.0.6.0.0.0.3.0.0.0.0" style="fill:#444444"/>
                                                    <polygon  id="polygon3099" gorn="0.3.0.0.0.6.0.0.0.3.0.0.0.1" points="62.326,37.08 62.326,40.793 60.47,42.65 60.47,35.223 " style="fill:#444444"/>
                                                    <polygon  id="polygon3101" gorn="0.3.0.0.0.6.0.0.0.3.0.0.0.2" points="56.757,35.223 56.757,42.65 54.9,40.793 54.9,37.08 " style="fill:#444444"/>
                                                    <rect height="1.668" width="1.313" x="57.957001" y="38.103001"  id="connector4pin" gorn="0.3.0.0.0.6.0.0.0.3.0.0.0.3" style="fill:#b88a00"/>
                                                </g>
                                            </g>
                                        </g>
                                    </g>
                                </g>
                            </g>
                        </g>
                    </g>
                    <g  transform="matrix(0,-1,1,0,0,0)">
                        <g >
                            <g >
                                <text fill="#e6e6e6" x="-97.5" y="20"  font-size="4" id="IN1label" stroke="none" gorn="0.3.0.0.0.7.0.0.0" style="text-anchor:start;font-family:OCRA">IN1</text>
                            </g>
                        </g>
                    </g>
                    <g  transform="matrix(0,-1,1,0,0,0)">
                        <g >
                            <g >
                                <text fill="#e6e6e6" x="-97.5" y="27.200001"  font-size="4" id="IN2label" stroke="none" gorn="0.3.0.0.0.8.0.0.0" style="text-anchor:start;font-family:OCRA">IN2</text>
                            </g>
                        </g>
                    </g>
                    <g  transform="matrix(0,-1,1,0,0,0)">
                        <g >
                            <g >
                                <text fill="#e6e6e6" x="-97.5" y="34.400002"  font-size="4" id="IN3label" stroke="none" gorn="0.3.0.0.0.9.0.0.0" style="text-anchor:start;font-family:OCRA">IN3</text>
                            </g>
                        </g>
                    </g>
                    <g  transform="matrix(0,-1,1,0,0,0)">
                        <g >
                            <g >
                                <text fill="#e6e6e6" x="-97.5" y="41.599998"  font-size="4" id="IN4label" stroke="none" gorn="0.3.0.0.0.10.0.0.0" style="text-anchor:start;font-family:OCRA">IN4</text>
                            </g>
                        </g>
                    </g>
                    <g  transform="matrix(0,-1,1,0,0,0)">
                        <g >
                            <g >
                                <text fill="#e6e6e6" x="-73.400002" y="82.699997"  font-size="4" id="terminal_labels" stroke="none" gorn="0.3.0.0.0.11.0.0.0" style="text-anchor:start;font-family:OCRA">- +</text>
                            </g>
                        </g>
                    </g>
                    <g  transform="matrix(0,-1,1,0,0,0)">
                        <g >
                            <g >
                                <text fill="#e6e6e6" x="-75" y="87"  font-size="4" id="voltage_label" stroke="none" gorn="0.3.0.0.0.12.0.0.0" style="text-anchor:start;font-family:OCRA">5-12V</text>
                            </g>
                        </g>
                    </g>
                    <g  id="g3177" gorn="0.3.0.0.0.13">
                        <g  transform="translate(59.305904,20.347007)">
                            <g >
                                <g >
                                    <g  id="R8" gorn="0.3.0.0.0.13.0.0.0.0">
                                        <path d="m 2.7133418,2.8425482 c 19.0806312,0 19.0806312,0 19.0806312,0" fill="none"  stroke-width="1.96914363" id="path3149" stroke="#8c8c8c" gorn="0.3.0.0.0.13.0.0.0.0.0" style="stroke-linecap:round"/>
                                        <g  transform="matrix(0.80000005,0,0,0.80000005,0,-4.5396512e-6)">
                                            <g >
                                                <g >
                                                    <path d="M 10.2478,0.49536 C 9.8878,0.32976 9.2686,0.20016 8.8726,0.20016 l -1.9872,0 c -0.396,0 -0.72,0.324 -0.72,0.72 l 0,5.35608 c 0,0.39672 0.324,0.72 0.72,0.72 l 1.9872,0 c 0.396,0 1.0152,-0.13608 1.3752,-0.2952 l 0.072,-0.03528 c 0.36,-0.1656 0.9792,-0.2952 1.3752,-0.2952 l 7.1856,0 c 0.39672,0 1.01448,0.13608 1.37448,0.2952 l 0.07272,0.03528 c 0.36,0.1656 0.97776,0.2952 1.3752,0.2952 l 1.9872,0 c 0.39744,0 0.72,-0.32328 0.72,-0.72 l 0,-5.35608 c 0,-0.396 -0.32256,-0.72 -0.72,-0.72 l -1.9872,0 c -0.39744,0 -1.0152,0.1368 -1.3752,0.2952 l -0.07272,0.036 c -0.36,0.1656 -0.97776,0.2952 -1.37448,0.2952 l -7.1856,0 c -0.396,0 -1.0152,-0.1368 -1.3752,-0.2952 l -0.072,-0.036 z"  id="path3153" gorn="0.3.0.0.0.13.0.0.0.0.1.0.0.0" style="fill:#d9b477"/>
                                                </g>
                                            </g>
                                        </g>
                                    </g>
                                </g>
                            </g>
                        </g>
                        <g  transform="translate(59.305904,27.307007)">
                            <g >
                                <g >
                                    <g  id="R7" gorn="0.3.0.0.0.13.1.0.0.0">
                                        <path d="m 2.7133418,2.8425482 c 19.0806312,0 19.0806312,0 19.0806312,0" fill="none"  stroke-width="1.96914363" id="path3161" stroke="#8c8c8c" gorn="0.3.0.0.0.13.1.0.0.0.0" style="stroke-linecap:round"/>
                                        <g  transform="matrix(0.80000005,0,0,0.80000005,0,-4.5396512e-6)">
                                            <g >
                                                <g >
                                                    <path d="M 10.2478,0.49536 C 9.8878,0.32976 9.2686,0.20016 8.8726,0.20016 l -1.9872,0 c -0.396,0 -0.72,0.324 -0.72,0.72 l 0,5.35608 c 0,0.39672 0.324,0.72 0.72,0.72 l 1.9872,0 c 0.396,0 1.0152,-0.13608 1.3752,-0.2952 l 0.072,-0.03528 c 0.36,-0.1656 0.9792,-0.2952 1.3752,-0.2952 l 7.1856,0 c 0.39672,0 1.01448,0.13608 1.37448,0.2952 l 0.07272,0.03528 c 0.36,0.1656 0.97776,0.2952 1.3752,0.2952 l 1.9872,0 c 0.39744,0 0.72,-0.32328 0.72,-0.72 l 0,-5.35608 c 0,-0.396 -0.32256,-0.72 -0.72,-0.72 l -1.9872,0 c -0.39744,0 -1.0152,0.1368 -1.3752,0.2952 l -0.07272,0.036 c -0.36,0.1656 -0.97776,0.2952 -1.37448,0.2952 l -7.1856,0 c -0.396,0 -1.0152,-0.1368 -1.3752,-0.2952 l -0.072,-0.036 z"  id="path3163" gorn="0.3.0.0.0.13.1.0.0.0.1.0.0.0" style="fill:#d9b477"/>
                                                </g>
                                            </g>
                                        </g>
                                    </g>
                                </g>
                            </g>
                        </g>
                        <g  transform="translate(59.305904,34.347008)">
                            <g >
                                <g >
                                    <g  id="R6" gorn="0.3.0.0.0.13.2.0.0.0">
                                        <path d="m 2.7133418,2.8425482 c 19.0806312,0 19.0806312,0 19.0806312,0" fill="none"  stroke-width="1.96914363" id="path3167" stroke="#8c8c8c" gorn="0.3.0.0.0.13.2.0.0.0.0" style="stroke-linecap:round"/>
                                        <g  transform="matrix(0.80000005,0,0,0.80000005,0,-4.5396512e-6)">
                                            <g >
                                                <g >
                                                    <path d="M 10.2478,0.49536 C 9.8878,0.32976 9.2686,0.20016 8.8726,0.20016 l -1.9872,0 c -0.396,0 -0.72,0.324 -0.72,0.72 l 0,5.35608 c 0,0.39672 0.324,0.72 0.72,0.72 l 1.9872,0 c 0.396,0 1.0152,-0.13608 1.3752,-0.2952 l 0.072,-0.03528 c 0.36,-0.1656 0.9792,-0.2952 1.3752,-0.2952 l 7.1856,0 c 0.39672,0 1.01448,0.13608 1.37448,0.2952 l 0.07272,0.03528 c 0.36,0.1656 0.97776,0.2952 1.3752,0.2952 l 1.9872,0 c 0.39744,0 0.72,-0.32328 0.72,-0.72 l 0,-5.35608 c 0,-0.396 -0.32256,-0.72 -0.72,-0.72 l -1.9872,0 c -0.39744,0 -1.0152,0.1368 -1.3752,0.2952 l -0.07272,0.036 c -0.36,0.1656 -0.97776,0.2952 -1.37448,0.2952 l -7.1856,0 c -0.396,0 -1.0152,-0.1368 -1.3752,-0.2952 l -0.072,-0.036 z"  id="path3169" gorn="0.3.0.0.0.13.2.0.0.0.1.0.0.0" style="fill:#d9b477"/>
                                                </g>
                                            </g>
                                        </g>
                                    </g>
                                </g>
                            </g>
                        </g>
                        <g  transform="translate(59.305904,41.307008)">
                            <g >
                                <g >
                                    <g  id="R5" gorn="0.3.0.0.0.13.3.0.0.0">
                                        <path d="m 2.7133418,2.8425482 c 19.0806312,0 19.0806312,0 19.0806312,0" fill="none"  stroke-width="1.96914363" id="path3173" stroke="#8c8c8c" gorn="0.3.0.0.0.13.3.0.0.0.0" style="stroke-linecap:round"/>
                                        <g  transform="matrix(0.80000005,0,0,0.80000005,0,-4.5396512e-6)">
                                            <g >
                                                <g >
                                                    <path d="M 10.2478,0.49536 C 9.8878,0.32976 9.2686,0.20016 8.8726,0.20016 l -1.9872,0 c -0.396,0 -0.72,0.324 -0.72,0.72 l 0,5.35608 c 0,0.39672 0.324,0.72 0.72,0.72 l 1.9872,0 c 0.396,0 1.0152,-0.13608 1.3752,-0.2952 l 0.072,-0.03528 c 0.36,-0.1656 0.9792,-0.2952 1.3752,-0.2952 l 7.1856,0 c 0.39672,0 1.01448,0.13608 1.37448,0.2952 l 0.07272,0.03528 c 0.36,0.1656 0.97776,0.2952 1.3752,0.2952 l 1.9872,0 c 0.39744,0 0.72,-0.32328 0.72,-0.72 l 0,-5.35608 c 0,-0.396 -0.32256,-0.72 -0.72,-0.72 l -1.9872,0 c -0.39744,0 -1.0152,0.1368 -1.3752,0.2952 l -0.07272,0.036 c -0.36,0.1656 -0.97776,0.2952 -1.37448,0.2952 l -7.1856,0 c -0.396,0 -1.0152,-0.1368 -1.3752,-0.2952 l -0.072,-0.036 z"  id="path3175" gorn="0.3.0.0.0.13.3.0.0.0.1.0.0.0" style="fill:#d9b477"/>
                                                </g>
                                            </g>
                                        </g>
                                    </g>
                                </g>
                            </g>
                        </g>
                        <g  transform="matrix(0,-1,1,0,0,0)">
                            <g >
                                <g >
                                    <text fill="#e6e6e6" x="-48" y="87"  font-size="4" id="resistor_labels" stroke="none" gorn="0.3.0.0.0.13.4.0.0.0" style="text-anchor:start;font-family:OCRA">R5R6R7R8</text>
                                </g>
                            </g>
                        </g>
                    </g>
                </g>
            </g>
        </g>
    </g>
</svg>
