<?xml version='1.0' encoding='utf-8'?>
<!DOCTYPE svg>
<!-- Generator: Adobe Illustrator 15.1.0, SVG Export Plug-In . SVG Version: 6.00 Build 0)  -->
<svg xmlns="http://www.w3.org/2000/svg" height="2.10301in" version="1.1" xmlns:xml="http://www.w3.org/XML/1998/namespace"  viewBox="0 0 90.976 151.417" x="0px" y="0px" gorn="0" id="Layer_2" enable-background="new 0 0 90.976 151.417" width="1.26356in" xml:space="preserve">
    <desc >
        <referenceFile >MBV2_PCB_v4.svg</referenceFile>
    </desc>
    <path fill="#A9A386"  stroke-miterlimit="10" d="M90.976,151.417H6.554l-6.497-8.291v-10.511l0.037-0.036l10.255-10.256V27.927L0.016,17.593V8.219L6.5,0h84.475V151.417z M6.676,151.167h84.049V0.25H6.622L0.398,8.153h0.044L0.266,8.342v9.147l10.333,10.333v94.604l-0.037,0.036L0.308,132.719v10.321L6.676,151.167z" stroke-width="0.25" gorn="0.1" stroke="#FFFFFF" id="silkscreen"/>
    <g  gorn="0.2" id="copper1">
        <g  gorn="0.2.0" id="copper0">
            <path fill="#F4BD19"  d="M11.532,8.746c1.231,0,2.229-0.998,2.229-2.23c0-1.23-0.998-2.229-2.229-2.229c-1.231,0-2.229,0.998-2.229,2.229C9.302,7.748,10.3,8.746,11.532,8.746z M11.532,5.183c0.736,0,1.333,0.596,1.333,1.332s-0.597,1.334-1.333,1.334c-0.736,0-1.333-0.598-1.333-1.334S10.795,5.183,11.532,5.183z" gorn="0.2.0.0" id="connector5pad"/>
            <path fill="#F4BD19"  d="M11.532,11.484c-1.231,0-2.229,0.998-2.229,2.229s0.998,2.229,2.229,2.229c1.231,0,2.229-0.998,2.229-2.229S12.763,11.484,11.532,11.484z M11.532,15.046c-0.736,0-1.333-0.598-1.333-1.334s0.597-1.334,1.333-1.334c0.736,0,1.333,0.598,1.333,1.334S12.268,15.046,11.532,15.046z" gorn="0.2.0.1" id="connector11pin"/>
            <path fill="#F4BD19"  d="M40.331,8.746c1.231,0,2.229-0.998,2.229-2.23c0-1.23-0.998-2.229-2.229-2.229c-1.231,0-2.229,0.998-2.229,2.229C38.101,7.748,39.099,8.746,40.331,8.746z M40.331,5.183c0.736,0,1.333,0.596,1.333,1.332s-0.597,1.334-1.333,1.334c-0.736,0-1.333-0.598-1.333-1.334S39.594,5.183,40.331,5.183z" gorn="0.2.0.2" id="connector6pad"/>
            <path fill="#F4BD19"  d="M40.331,11.484c-1.231,0-2.229,0.998-2.229,2.229s0.998,2.229,2.229,2.229c1.231,0,2.229-0.998,2.229-2.229S41.562,11.484,40.331,11.484z M40.331,15.046c-0.736,0-1.333-0.598-1.333-1.334s0.597-1.334,1.333-1.334c0.736,0,1.333,0.598,1.333,1.334S41.066,15.046,40.331,15.046z" gorn="0.2.0.3" id="connector12pin"/>
            <path fill="#F4BD19"  d="M11.532,138.349c1.231,0,2.229-0.998,2.229-2.23c0-1.23-0.998-2.229-2.229-2.229c-1.231,0-2.229,0.998-2.229,2.229C9.302,137.351,10.3,138.349,11.532,138.349z M11.532,134.786c0.736,0,1.333,0.596,1.333,1.332s-0.597,1.334-1.333,1.334c-0.736,0-1.333-0.598-1.333-1.334S10.795,134.786,11.532,134.786z" gorn="0.2.0.4" id="connector9pad"/>
            <path fill="#F4BD19"  d="M11.532,141.087c-1.231,0-2.229,0.998-2.229,2.229s0.998,2.229,2.229,2.229c1.231,0,2.229-0.998,2.229-2.229S12.763,141.087,11.532,141.087z M11.532,144.649c-0.736,0-1.333-0.598-1.333-1.334s0.597-1.334,1.333-1.334c0.736,0,1.333,0.598,1.333,1.334S12.268,144.649,11.532,144.649z" gorn="0.2.0.5" id="connector13pin"/>
            <path fill="#F4BD19"  d="M40.331,138.349c1.231,0,2.229-0.998,2.229-2.23c0-1.23-0.998-2.229-2.229-2.229c-1.231,0-2.229,0.998-2.229,2.229C38.101,137.351,39.099,138.349,40.331,138.349z M40.331,134.786c0.736,0,1.333,0.596,1.333,1.332s-0.597,1.334-1.333,1.334c-0.736,0-1.333-0.598-1.333-1.334S39.594,134.786,40.331,134.786z" gorn="0.2.0.6" id="connector10pad"/>
            <path fill="#F4BD19"  d="M40.331,141.087c-1.231,0-2.229,0.998-2.229,2.229s0.998,2.229,2.229,2.229c1.231,0,2.229-0.998,2.229-2.229S41.562,141.087,40.331,141.087z M40.331,144.649c-0.736,0-1.333-0.598-1.333-1.334s0.597-1.334,1.333-1.334c0.736,0,1.333,0.598,1.333,1.334S41.066,144.649,40.331,144.649z" gorn="0.2.0.7" id="connector14pin"/>
        </g>
    </g>
</svg>
